<svg width="28" height="27" viewBox="0 0 28 27" fill="none" xmlns="http://www.w3.org/2000/svg">
<path d="M6.97876 13.1742C8.2026 13.1745 9.4046 12.8677 10.462 12.285V12.3509H21.7824C23.3991 12.3509 24.9495 11.7436 26.0927 10.6627C27.2358 9.58178 27.8781 8.11576 27.8781 6.58712C27.8781 5.05848 27.2358 3.59245 26.0927 2.51154C24.9495 1.43063 23.3991 0.823381 21.7824 0.823381H10.462V0.889253C9.53669 0.381741 8.50024 0.0825213 7.43296 0.0147878C6.36567 -0.0529457 5.29622 0.112627 4.30752 0.49867C3.31881 0.884714 2.4374 1.48086 1.73161 2.24089C1.02583 3.00093 0.514621 3.90444 0.237624 4.88138C-0.0393737 5.85832 -0.0747217 6.88246 0.13432 7.8744C0.343361 8.86635 0.791176 9.79945 1.44305 10.6014C2.09493 11.4033 2.93335 12.0525 3.89334 12.4987C4.85332 12.9449 5.90907 13.176 6.97876 13.1742V13.1742ZM12.4126 2.47016H21.7824C22.9372 2.47016 24.0446 2.90391 24.8612 3.67599C25.6777 4.44807 26.1364 5.49523 26.1364 6.58712C26.1364 7.679 25.6777 8.72616 24.8612 9.49824C24.0446 10.2703 22.9372 10.7041 21.7824 10.7041H12.4126C13.4018 9.53576 13.9408 8.08375 13.9408 6.58712C13.9408 5.09049 13.4018 3.63847 12.4126 2.47016V2.47016ZM6.97876 1.64677C8.01213 1.64677 9.0223 1.93652 9.88152 2.47937C10.7407 3.02222 11.4104 3.7938 11.8059 4.69653C12.2013 5.59926 12.3048 6.5926 12.1032 7.55093C11.9016 8.50926 11.404 9.38955 10.6733 10.0805C9.94256 10.7714 9.01159 11.2419 7.99807 11.4325C6.98455 11.6232 5.93402 11.5253 4.9793 11.1514C4.02459 10.7775 3.20859 10.1443 2.63448 9.33183C2.06036 8.51939 1.75393 7.56423 1.75393 6.58712C1.75393 5.27686 2.3044 4.02026 3.28425 3.09377C4.26409 2.16727 5.59305 1.64677 6.97876 1.64677V1.64677Z" fill="black"/>
<path d="M20.9118 13.1742C19.6879 13.1739 18.4859 13.4808 17.4285 14.0635V13.9976H6.10808C4.49142 13.9976 2.94097 14.6049 1.79782 15.6858C0.654667 16.7667 0.0124512 18.2327 0.0124512 19.7614C0.0124512 21.29 0.654667 22.756 1.79782 23.8369C2.94097 24.9178 4.49142 25.5251 6.10808 25.5251H17.4285V25.4592C18.3538 25.9667 19.3903 26.266 20.4576 26.3337C21.5248 26.4014 22.5943 26.2359 23.583 25.8498C24.5717 25.4638 25.4531 24.8676 26.1589 24.1076C26.8647 23.3476 27.3759 22.444 27.6529 21.4671C27.9299 20.4902 27.9652 19.466 27.7562 18.4741C27.5471 17.4821 27.0993 16.549 26.4475 15.7471C25.7956 14.9452 24.9572 14.296 23.9972 13.8498C23.0372 13.4036 21.9814 13.1724 20.9118 13.1742ZM15.4779 23.8783H6.10808C4.95332 23.8783 3.84586 23.4446 3.02932 22.6725C2.21279 21.9004 1.75406 20.8532 1.75406 19.7614C1.75406 18.6695 2.21279 17.6223 3.02932 16.8502C3.84586 16.0782 4.95332 15.6444 6.10808 15.6444H15.4779C14.4887 16.8127 13.9497 18.2647 13.9497 19.7614C13.9497 21.258 14.4887 22.71 15.4779 23.8783ZM20.9118 24.7017C19.8784 24.7017 18.8682 24.412 18.009 23.8691C17.1498 23.3263 16.4801 22.5547 16.0846 21.652C15.6892 20.7492 15.5857 19.7559 15.7873 18.7975C15.9889 17.8392 16.4865 16.9589 17.2172 16.268C17.9479 15.5771 18.8789 15.1066 19.8924 14.9159C20.906 14.7253 21.9565 14.8232 22.9112 15.1971C23.8659 15.571 24.6819 16.2042 25.256 17.0167C25.8301 17.8291 26.1366 18.7843 26.1366 19.7614C26.1366 21.0716 25.5861 22.3282 24.6063 23.2547C23.6264 24.1812 22.2975 24.7017 20.9118 24.7017Z" fill="black"/>
</svg>
