<svg width="11" height="9" viewBox="0 0 11 9" fill="none" xmlns="http://www.w3.org/2000/svg">
<path d="M3.62913 3.13629L3.87603 3.10552L4.00038 2.89L5.34288 0.563146C5.34289 0.563122 5.34291 0.563097 5.34292 0.563073C5.35464 0.54286 5.39983 0.499722 5.49937 0.500001C5.59955 0.500283 5.64605 0.544361 5.65743 0.56368C5.65748 0.56376 5.65752 0.56384 5.65757 0.563919L6.99962 2.89L7.12397 3.10552L7.37087 3.13629L10.3748 3.51066L10.3751 3.5107C10.4648 3.52182 10.4923 3.56105 10.4983 3.57212C10.4953 3.57608 10.49 3.58211 10.4807 3.58985L10.4805 3.58997L8.30727 5.40029L8.07839 5.59095L8.13709 5.883L8.65032 8.4364C8.64614 8.4421 8.63615 8.45335 8.61598 8.46575C8.5574 8.50177 8.4702 8.51306 8.39229 8.47804L8.39221 8.478L5.70493 7.27054L5.5 7.17846L5.29507 7.27054L2.60779 8.478L2.60632 8.47867C2.5291 8.51366 2.44273 8.50257 2.38438 8.46663C2.36378 8.45394 2.35372 8.44239 2.34962 8.43668L2.86291 5.883L2.92161 5.59095L2.69273 5.40029L0.519464 3.58997L0.519315 3.58985C0.510016 3.58211 0.504651 3.57608 0.501686 3.57212C0.507674 3.56105 0.535237 3.52182 0.624894 3.5107L0.625208 3.51066L3.62913 3.13629ZM10.5016 3.56672C10.5016 3.56674 10.5015 3.56713 10.5011 3.56787L10.5016 3.56672ZM0.498391 3.56672C0.498424 3.56671 0.498624 3.56709 0.498892 3.56787L0.498391 3.56672Z" fill="#FAFF00" stroke="black"/>
</svg>
