<svg width="47" height="49" viewBox="0 0 47 49" fill="none" xmlns="http://www.w3.org/2000/svg">
<g filter="url(#filter0_d_146_117)">
<path d="M40.5571 37.3347L33.8988 30.7736C36.047 28.0687 37.2127 24.7285 37.2083 21.2899C37.2083 18.2275 36.2895 15.2339 34.568 12.6877C32.8466 10.1414 30.3998 8.15687 27.537 6.98496C24.6743 5.81304 21.5243 5.50642 18.4853 6.10385C15.4462 6.70129 12.6547 8.17595 10.4637 10.3414C8.27264 12.5068 6.78054 15.2657 6.17604 18.2692C5.57154 21.2727 5.88179 24.3859 7.06756 27.2152C8.25333 30.0444 10.2614 32.4626 12.8377 34.164C15.4141 35.8653 18.4431 36.7734 21.5417 36.7734C25.021 36.7777 28.4006 35.6257 31.1375 33.5025L37.7763 40.083C37.9583 40.2644 38.1749 40.4084 38.4135 40.5067C38.6522 40.6049 38.9081 40.6555 39.1667 40.6555C39.4252 40.6555 39.6812 40.6049 39.9198 40.5067C40.1584 40.4084 40.375 40.2644 40.5571 40.083C40.7406 39.9031 40.8863 39.689 40.9858 39.4532C41.0852 39.2173 41.1364 38.9644 41.1364 38.7089C41.1364 38.4534 41.0852 38.2004 40.9858 37.9645C40.8863 37.7287 40.7406 37.5146 40.5571 37.3347ZM9.79167 21.2899C9.79167 18.9931 10.4808 16.7479 11.7719 14.8382C13.063 12.9285 14.8981 11.4401 17.0451 10.5612C19.1922 9.68225 21.5547 9.45228 23.834 9.90036C26.1133 10.3484 28.2069 11.4544 29.8502 13.0785C31.4934 14.7026 32.6125 16.7717 33.0659 19.0244C33.5193 21.277 33.2866 23.6119 32.3973 25.7339C31.5079 27.8558 30.0019 29.6694 28.0696 30.9455C26.1373 32.2215 23.8656 32.9025 21.5417 32.9025C18.4254 32.9025 15.4367 31.6791 13.2332 29.5013C11.0296 27.3235 9.79167 24.3698 9.79167 21.2899Z" fill="#231F20"/>
</g>
<defs>
<filter id="filter0_d_146_117" x="1.875" y="5.80634" width="43.2612" height="42.8492" filterUnits="userSpaceOnUse" color-interpolation-filters="sRGB">
<feFlood flood-opacity="0" result="BackgroundImageFix"/>
<feColorMatrix in="SourceAlpha" type="matrix" values="0 0 0 0 0 0 0 0 0 0 0 0 0 0 0 0 0 0 127 0" result="hardAlpha"/>
<feOffset dy="4"/>
<feGaussianBlur stdDeviation="2"/>
<feComposite in2="hardAlpha" operator="out"/>
<feColorMatrix type="matrix" values="0 0 0 0 0 0 0 0 0 0 0 0 0 0 0 0 0 0 0.25 0"/>
<feBlend mode="normal" in2="BackgroundImageFix" result="effect1_dropShadow_146_117"/>
<feBlend mode="normal" in="SourceGraphic" in2="effect1_dropShadow_146_117" result="shape"/>
</filter>
</defs>
</svg>
