<svg width="12" height="10" viewBox="0 0 12 10" fill="none" xmlns="http://www.w3.org/2000/svg">
<path d="M4.20314 3.39795L3.95455 3.4295L0.677551 3.84546L0.677231 3.8455C0.555812 3.86084 0.514349 3.9229 0.504414 3.94955C0.498844 3.96449 0.499472 3.97502 0.501325 3.9822C0.502728 3.98764 0.508644 4.00697 0.540906 4.03432L0.541055 4.03445L2.91189 6.04592L3.13581 6.2359L3.07896 6.52399L2.51829 9.36505C2.51828 9.36509 2.51827 9.36514 2.51826 9.36518C2.51512 9.38125 2.5173 9.38943 2.52189 9.39861C2.52836 9.41156 2.54525 9.43453 2.5808 9.45684C2.65541 9.50366 2.76247 9.51728 2.85886 9.47278L2.86035 9.4721L5.79193 8.13047L6 8.03525L6.20807 8.13047L9.13966 9.4721L9.13973 9.47214C9.23682 9.51659 9.34472 9.50276 9.41956 9.45588C9.45517 9.43359 9.47191 9.41074 9.47824 9.39807C9.48266 9.38925 9.48487 9.38133 9.48177 9.36535C9.48175 9.36525 9.48174 9.36515 9.48172 9.36505L4.20314 3.39795ZM4.20314 3.39795L4.32664 3.17992L5.7912 0.594499L4.20314 3.39795Z" fill="#FAFF00" stroke="black"/>
</svg>
