<svg width="231" height="95" viewBox="0 0 231 95" fill="none" xmlns="http://www.w3.org/2000/svg">
<path d="M0 95V0H8.12109V95H0ZM12.1171 94.9325V0H16.2422V94.9325H12.1171ZM24.3633 94.9325V0H28.3593V94.9325H24.3633ZM44.6015 94.9325V0H48.5975V94.9325H44.6015ZM60.8437 94.9325V0H68.8357V94.9325H60.8437ZM81.0819 94.9325V0H85.0779V94.9325H81.0819ZM89.203 94.9325V0H93.199V94.9325H89.203ZM97.3241 94.9325V0H101.32V94.9325H97.3241ZM113.438 94.9325V0H121.559V94.9325H113.438ZM133.676 94.9325V0H141.797V94.9325H133.676ZM149.918 94.9325V0H158.039V94.9325H149.918ZM166.16 94.9325V0H174.282V94.9325H166.16ZM178.277 94.9325V0H186.398V94.9325H178.277ZM198.645 94.9325V0H210.762V94.9325H198.645ZM214.758 94.9325V0H218.883V94.9325H214.758ZM222.879 95V0H231V95H222.879Z" fill="black"/>
</svg>
