<svg width="49" height="47" viewBox="0 0 49 47" fill="none" xmlns="http://www.w3.org/2000/svg">
<path d="M48.1858 12.921C47.9027 12.5274 47.4416 12.2918 46.95 12.2918H14.649L12.2032 4.03214C11.2444 0.778955 8.96597 0.428589 8.03148 0.428589H1.51132C0.675758 0.428589 0 1.09205 0 1.90907C0 2.72609 0.67728 3.38955 1.51132 3.38955H8.02996C8.23695 3.38955 8.86552 3.38955 9.29472 4.84171L17.7067 35.1237C17.8893 35.7618 18.4844 36.2032 19.1617 36.2032H39.7069C40.3446 36.2032 40.9138 35.8125 41.1284 35.2236L48.37 14.2718C48.5374 13.8185 48.4674 13.3131 48.1843 12.9195L48.1858 12.921ZM38.6446 33.2437H20.3108L15.4998 15.2543H44.8025L38.6446 33.2437ZM35.6463 39.2044C33.5444 39.2044 31.8413 40.8727 31.8413 42.9317C31.8413 44.9906 33.5444 46.659 35.6463 46.659C37.7481 46.659 39.4512 44.9906 39.4512 42.9317C39.4512 40.8727 37.7481 39.2044 35.6463 39.2044ZM21.9484 39.2044C19.8466 39.2044 18.1435 40.8727 18.1435 42.9317C18.1435 44.9906 19.8466 46.659 21.9484 46.659C24.0503 46.659 25.7534 44.9906 25.7534 42.9317C25.7534 40.8727 24.0503 39.2044 21.9484 39.2044Z" fill="#FD3F08"/>
</svg>
