<svg width="20" height="20" viewBox="0 0 20 20" fill="none" xmlns="http://www.w3.org/2000/svg">
<path d="M8.57143 0C7 0 5.71429 1.10047 5.71429 2.44548H2.85714C1.28571 2.44548 0 3.54595 0 4.89096H20C20 3.54595 18.7143 2.44548 17.1429 2.44548H14.2857C14.2857 1.10047 13 0 11.4286 0H8.57143ZM2.85714 7.33644V19.0992C2.85714 19.3682 3.08571 19.5638 3.4 19.5638H16.6286C16.9429 19.5638 17.1714 19.3682 17.1714 19.0992V7.33644H14.3143V15.8956C14.3143 16.5804 13.6857 17.1184 12.8857 17.1184C12.0857 17.1184 11.4571 16.5804 11.4571 15.8956V7.33644H8.6V15.8956C8.6 16.5804 7.97143 17.1184 7.17143 17.1184C6.37143 17.1184 5.74286 16.5804 5.74286 15.8956V7.33644H2.88571H2.85714Z" fill="black"/>
</svg>
