<svg width="31" height="30" viewBox="0 0 31 30" fill="none" xmlns="http://www.w3.org/2000/svg">
<path d="M10.3334 10L10.3334 8.91667C10.3334 6.0632 12.6466 3.75 15.5 3.75V3.75C18.3535 3.75 20.6667 6.0632 20.6667 8.91667L20.6667 10" stroke="black" stroke-width="2" stroke-linecap="round"/>
<path d="M19.375 17.5V15" stroke="black" stroke-width="2" stroke-linecap="round"/>
<path d="M11.625 17.5V15" stroke="black" stroke-width="2" stroke-linecap="round"/>
<path d="M5.16663 14C5.16663 12.1144 5.16663 11.1716 5.75241 10.5858C6.3382 10 7.28101 10 9.16663 10H21.8333C23.7189 10 24.6617 10 25.2475 10.5858C25.8333 11.1716 25.8333 12.1144 25.8333 14V18.25C25.8333 22.0212 25.8333 23.9069 24.6617 25.0784C23.4901 26.25 21.6045 26.25 17.8333 26.25H13.1666C9.39539 26.25 7.50977 26.25 6.3382 25.0784C5.16663 23.9069 5.16663 22.0212 5.16663 18.25V14Z" stroke="black" stroke-width="2"/>
</svg>
