<svg width="31" height="28" viewBox="0 0 31 28" fill="none" xmlns="http://www.w3.org/2000/svg">
<path d="M11.625 8.16666L16.7917 8.16666" stroke="black" stroke-width="2" stroke-linecap="round"/>
<path d="M11.625 17.5L15.5 17.5" stroke="black" stroke-width="2" stroke-linecap="round"/>
<path d="M11.625 12.8333L19.375 12.8333" stroke="black" stroke-width="2" stroke-linecap="round"/>
<path d="M24.5417 12.8333V9.5C24.5417 6.67157 24.5417 5.25736 23.663 4.37868C22.7843 3.5 21.3701 3.5 18.5417 3.5H12.4584C9.62995 3.5 8.21573 3.5 7.33705 4.37868C6.45837 5.25736 6.45837 6.67157 6.45837 9.5V18.5C6.45837 21.3284 6.45837 22.7426 7.33705 23.6213C8.21573 24.5 9.62995 24.5 12.4584 24.5H15.5" stroke="black" stroke-width="2"/>
<ellipse cx="22.6042" cy="20.4167" rx="3.22917" ry="2.91667" stroke="black" stroke-width="2"/>
<path d="M27.125 24.5L25.1875 22.75" stroke="black" stroke-width="2" stroke-linecap="round"/>
</svg>
