<svg width="76" height="75" viewBox="0 0 76 75" fill="none" xmlns="http://www.w3.org/2000/svg">
<g filter="url(#filter0_d_143_68)">
<ellipse cx="38" cy="33.5" rx="34" ry="33.5" fill="#D9D9D9"/>
<path d="M37.6471 20.2515C36.2516 20.7073 34.969 21.4629 33.8867 22.4671C32.8044 23.4713 31.9476 24.7004 31.3747 26.0709C31.3747 26.0709 26.7512 37.4007 22.4754 37.2512C22.4296 37.261 22.3958 37.3002 22.3499 37.3125C22.163 37.3641 21.9859 37.4469 21.8259 37.5577C21.7608 37.5994 21.6956 37.6313 21.6376 37.6803C21.4206 37.8625 21.2493 38.0945 21.1379 38.3572C21.0468 38.5803 21 38.8195 21 39.0611C21 39.3027 21.0469 39.5419 21.1379 39.7651C21.229 39.9882 21.3623 40.191 21.5305 40.3618C21.6987 40.5326 21.8984 40.6681 22.1181 40.7605L45.5396 50.614C45.759 50.7071 45.9944 50.7552 46.2322 50.7555C46.4701 50.7558 46.7056 50.7083 46.9253 50.6157C47.1449 50.5232 47.3444 50.3874 47.5123 50.2163C47.6801 50.0451 47.8129 49.8419 47.9031 49.6184C48.0073 49.3522 48.0479 49.0648 48.0215 48.7797C48.0166 48.7012 47.9877 48.635 47.9732 48.559C47.9375 48.366 47.8706 48.1804 47.7752 48.0096C47.7511 47.968 47.7534 47.914 47.7269 47.8747C45.9089 46.1507 46.7153 41.6311 47.7028 38.1218C44.6205 37.9525 41.7192 36.5902 39.5952 34.3151C37.4712 32.04 36.2859 29.0248 36.283 25.8894C36.2868 23.9263 36.7546 21.9928 37.6471 20.2515V20.2515ZM33.0526 48.0121C32.9027 49.0882 33.1091 50.1845 33.6392 51.1286C34.1693 52.0727 34.9931 52.8113 35.9812 53.2282C36.9702 53.6433 38.0669 53.713 39.0991 53.4263C40.1313 53.1395 41.0405 52.5126 41.6838 51.644L33.0526 48.0121Z" fill="#666666"/>
<path d="M58.0119 25.8894C58.0119 28.491 56.9945 30.9861 55.1834 32.8257C53.3723 34.6653 50.9159 35.6988 48.3546 35.6988C45.7933 35.6988 43.3369 34.6653 41.5258 32.8257C39.7147 30.9861 38.6973 28.491 38.6973 25.8894C38.6973 23.2878 39.7147 20.7927 41.5258 18.9531C43.3369 17.1135 45.7933 16.08 48.3546 16.08C50.9159 16.08 53.3723 17.1135 55.1834 18.9531C56.9945 20.7927 58.0119 23.2878 58.0119 25.8894Z" fill="#D33636"/>
</g>
<defs>
<filter id="filter0_d_143_68" x="0" y="0" width="76" height="75" filterUnits="userSpaceOnUse" color-interpolation-filters="sRGB">
<feFlood flood-opacity="0" result="BackgroundImageFix"/>
<feColorMatrix in="SourceAlpha" type="matrix" values="0 0 0 0 0 0 0 0 0 0 0 0 0 0 0 0 0 0 127 0" result="hardAlpha"/>
<feOffset dy="4"/>
<feGaussianBlur stdDeviation="2"/>
<feComposite in2="hardAlpha" operator="out"/>
<feColorMatrix type="matrix" values="0 0 0 0 0 0 0 0 0 0 0 0 0 0 0 0 0 0 0.25 0"/>
<feBlend mode="normal" in2="BackgroundImageFix" result="effect1_dropShadow_143_68"/>
<feBlend mode="normal" in="SourceGraphic" in2="effect1_dropShadow_143_68" result="shape"/>
</filter>
</defs>
</svg>
