<svg width="29" height="32" viewBox="0 0 29 32" fill="none" xmlns="http://www.w3.org/2000/svg">
<path d="M15.2383 9.7353C16.171 9.7353 17.0654 10.1199 17.7249 10.8046C18.3844 11.4892 18.7549 12.4178 18.7549 13.386C18.7549 13.7088 18.8784 14.0183 19.0982 14.2465C19.318 14.4747 19.6162 14.6029 19.9271 14.6029C20.2379 14.6029 20.5361 14.4747 20.7559 14.2465C20.9757 14.0183 21.0992 13.7088 21.0992 13.386C21.0992 11.7723 20.4818 10.2247 19.3826 9.08361C18.2835 7.94253 16.7927 7.30148 15.2383 7.30148C14.9275 7.30148 14.6293 7.42969 14.4095 7.65791C14.1897 7.88612 14.0662 8.19565 14.0662 8.51839C14.0662 8.84114 14.1897 9.15066 14.4095 9.37888C14.6293 9.60709 14.9275 9.7353 15.2383 9.7353V9.7353Z" fill="#231F20"/>
<path d="M15.2383 4.86766C17.4145 4.86766 19.5016 5.76513 21.0403 7.36263C22.5791 8.96013 23.4436 11.1268 23.4436 13.386C23.4436 13.7088 23.5671 14.0183 23.7869 14.2465C24.0068 14.4747 24.3049 14.6029 24.6158 14.6029C24.9267 14.6029 25.2248 14.4747 25.4446 14.2465C25.6645 14.0183 25.788 13.7088 25.788 13.386C25.788 10.4813 24.6765 7.69559 22.698 5.64166C20.7196 3.58773 18.0363 2.43384 15.2383 2.43384C14.9275 2.43384 14.6293 2.56205 14.4095 2.79026C14.1897 3.01848 14.0662 3.328 14.0662 3.65075C14.0662 3.97349 14.1897 4.28302 14.4095 4.51123C14.6293 4.73945 14.9275 4.86766 15.2383 4.86766V4.86766Z" fill="#231F20"/>
<path d="M25.495 19.3611C25.4306 19.1657 25.3193 18.9906 25.1716 18.8522C25.024 18.7138 24.8448 18.6167 24.6511 18.5701L17.618 16.9029C17.4271 16.858 17.2284 16.8634 17.04 16.9186C16.8516 16.9739 16.6796 17.0773 16.5396 17.2193C16.3755 17.3775 16.3638 17.3897 15.6018 18.8986C13.0737 17.6892 11.0479 15.5775 9.89332 12.9479C11.382 12.1691 11.3937 12.1691 11.5461 11.9866C11.6829 11.8412 11.7825 11.6626 11.8357 11.4671C11.8889 11.2715 11.8941 11.0652 11.8509 10.867L10.245 3.65075C10.2 3.44959 10.1065 3.26361 9.9732 3.11033C9.83991 2.95705 9.67123 2.84151 9.48306 2.77457C9.20932 2.67307 8.92664 2.5997 8.63909 2.55553C8.34282 2.48421 8.0405 2.44345 7.73651 2.43384C6.30646 2.43384 4.93497 3.0236 3.92377 4.07339C2.91257 5.12318 2.34448 6.547 2.34448 8.03162C2.35069 12.9999 4.25453 17.7629 7.63852 21.276C11.0225 24.7891 15.6104 26.7656 20.3961 26.772C21.1041 26.772 21.8053 26.6272 22.4595 26.3459C23.1137 26.0646 23.7081 25.6523 24.2088 25.1325C24.7095 24.6127 25.1067 23.9956 25.3776 23.3164C25.6486 22.6373 25.7881 21.9094 25.7881 21.1742C25.7884 20.8645 25.7649 20.5552 25.7178 20.2494C25.6685 19.9471 25.594 19.6499 25.495 19.3611V19.3611Z" fill="#231F20"/>
</svg>
