<svg width="97" height="92" viewBox="0 0 97 92" fill="none" xmlns="http://www.w3.org/2000/svg">
<ellipse cx="48.5" cy="46" rx="48.5" ry="46" fill="white"/>
<path d="M71.3887 29.2497C71.1035 28.9033 70.1331 29.041 69.66 29.1624C69.2709 29.3041 68.9192 29.5338 68.6332 29.8336C68.5624 29.8966 68.492 29.9592 68.4219 30.0188C58.2281 38.6558 48.3402 47.1793 39.4264 56.4923C39.2475 56.6791 39.059 56.855 38.7979 57.0997C38.6621 57.2265 38.5076 57.3705 38.3257 57.5428C37.2088 56.3165 34.655 53.4221 32.5963 51.0896C31.5153 49.865 30.5722 48.7964 30.0486 48.2091C29.759 47.8714 29.4875 47.5184 29.2355 47.1517C29.0647 46.9124 28.8878 46.6646 28.7026 46.4297C28.3634 45.9989 27.7314 45.1985 26.838 45.8145C26.0809 46.3389 26.3688 47.0841 26.7016 47.6778C26.7405 47.7462 26.7786 47.8158 26.8164 47.8853C26.9514 48.1499 27.1084 48.4027 27.2856 48.641C28.869 50.6425 33.8703 56.7865 35.5238 58.6062C36.8535 60.0687 37.7108 60.6527 38.5804 60.685H38.6519C39.6455 60.685 40.6595 59.9162 41.9638 58.6813C48.8287 52.1782 55.0286 46.3721 60.9182 40.933C62.7978 39.1968 64.7642 37.4908 66.666 35.8407C67.8414 34.8211 69.0561 33.7668 70.2389 32.7158C70.8148 32.2047 71.3505 31.6947 71.5832 31.085C71.7801 30.5694 71.7388 29.6744 71.3887 29.2497Z" fill="#24FF00"/>
<path d="M66.1308 76.7158H63.3827C62.7256 76.5583 62.0583 76.4482 61.3856 76.3863C55.435 76.2396 49.484 76.0754 43.5325 76.0186C39.0503 75.9758 34.5591 75.9264 30.086 76.1563C21.762 76.5859 16.8035 69.9813 17.4052 64.2101C17.5749 62.5834 17.4245 60.9216 17.4021 59.2762C17.2672 49.3422 17.1027 39.4086 17.0074 29.4739C16.9865 27.2822 16.9848 25.0499 17.3568 22.9027C18.237 17.8244 22.8174 14.218 28.4706 14.0615C37.3949 13.8131 46.3222 13.6773 55.2473 13.4587C59.0904 13.3646 62.9353 13.252 66.7724 13.0266C72.8766 12.6678 78.9855 15.9399 79.8668 23.1751C80.4847 28.2432 80.8387 33.364 80.9465 38.4691C81.1282 47.0721 81.0488 55.6815 81.0247 64.2879C81.0099 69.4654 76.6581 74.7821 71.5394 75.8937C69.7609 76.2808 67.9349 76.4485 66.1308 76.7158ZM47.5752 73.1005C49.8155 73.2029 52.0546 73.341 54.296 73.4005C59.269 73.5316 64.2344 74.2452 69.2181 73.3748C74.1707 72.5095 78.0023 68.4156 77.9844 63.9101C77.956 56.8149 77.9545 49.7196 77.9798 42.6245C77.9965 36.5874 78.0471 30.5729 76.8756 24.5846C75.7924 19.0474 72.4335 16.3859 66.7763 16.3512C58.2625 16.299 49.7473 16.4221 41.234 16.6081C37.1217 16.6981 33.0063 17.0064 28.9092 17.3933C25.9069 17.677 23.158 18.6651 21.6348 21.5942C20.5197 23.8017 19.9591 26.2476 20.0014 28.7204C20.0072 40.0726 20.1298 51.4254 20.0484 62.7783C20.002 69.221 23.7075 73.1441 30.1326 73.106C35.947 73.071 41.7611 73.0982 47.5752 73.1005Z" fill="#24FF00"/>
</svg>
