<svg width="406" height="68" viewBox="0 0 406 68" fill="none" xmlns="http://www.w3.org/2000/svg">
<g filter="url(#filter0_d_138_118)">
<rect x="4" width="398" height="60" rx="30" fill="#D9D9D9"/>
</g>
<rect x="13" y="7" width="380" height="46" rx="23" fill="#F6CABD"/>
<path d="M52.3392 40.1313L47.5225 35.1875C49.0766 33.1494 49.9198 30.6326 49.9167 28.0417C49.9167 25.7342 49.252 23.4786 48.0067 21.56C46.7613 19.6414 44.9913 18.1461 42.9204 17.2631C40.8495 16.3801 38.5708 16.149 36.3723 16.5992C34.1739 17.0493 32.1545 18.1605 30.5695 19.7921C28.9845 21.4237 27.9051 23.5025 27.4678 25.7656C27.0305 28.0287 27.2549 30.3745 28.1127 32.5063C28.9705 34.6381 30.4231 36.4602 32.2869 37.7422C34.1506 39.0241 36.3418 39.7083 38.5833 39.7083C41.1003 39.7116 43.5452 38.8435 45.525 37.2438L50.3275 42.2021C50.4592 42.3388 50.6159 42.4473 50.7885 42.5213C50.9612 42.5953 51.1463 42.6335 51.3333 42.6335C51.5204 42.6335 51.7055 42.5953 51.8782 42.5213C52.0508 42.4473 52.2075 42.3388 52.3392 42.2021C52.472 42.0665 52.5773 41.9052 52.6493 41.7275C52.7212 41.5498 52.7582 41.3592 52.7582 41.1667C52.7582 40.9742 52.7212 40.7835 52.6493 40.6058C52.5773 40.4281 52.472 40.2668 52.3392 40.1313V40.1313ZM30.0833 28.0417C30.0833 26.3111 30.5819 24.6194 31.5158 23.1804C32.4498 21.7415 33.7774 20.62 35.3305 19.9577C36.8837 19.2955 38.5928 19.1222 40.2416 19.4598C41.8904 19.7974 43.405 20.6308 44.5937 21.8545C45.7825 23.0782 46.592 24.6373 46.92 26.3346C47.248 28.032 47.0797 29.7913 46.4363 31.3902C45.793 32.989 44.7035 34.3556 43.3057 35.317C41.9079 36.2785 40.2645 36.7917 38.5833 36.7917C36.329 36.7917 34.167 35.8698 32.5729 34.2289C30.9789 32.5879 30.0833 30.3623 30.0833 28.0417Z" fill="#231F20"/>
<defs>
<filter id="filter0_d_138_118" x="0" y="0" width="406" height="68" filterUnits="userSpaceOnUse" color-interpolation-filters="sRGB">
<feFlood flood-opacity="0" result="BackgroundImageFix"/>
<feColorMatrix in="SourceAlpha" type="matrix" values="0 0 0 0 0 0 0 0 0 0 0 0 0 0 0 0 0 0 127 0" result="hardAlpha"/>
<feOffset dy="4"/>
<feGaussianBlur stdDeviation="2"/>
<feComposite in2="hardAlpha" operator="out"/>
<feColorMatrix type="matrix" values="0 0 0 0 0 0 0 0 0 0 0 0 0 0 0 0 0 0 0.25 0"/>
<feBlend mode="normal" in2="BackgroundImageFix" result="effect1_dropShadow_138_118"/>
<feBlend mode="normal" in="SourceGraphic" in2="effect1_dropShadow_138_118" result="shape"/>
</filter>
</defs>
</svg>
