<svg width="29" height="85" viewBox="0 0 29 85" fill="none" xmlns="http://www.w3.org/2000/svg">
<path d="M4.57143 81.4426C4.57143 82.1407 4.81977 82.8102 5.26182 83.3038C5.70387 83.7973 6.30342 84.0746 6.92857 84.0746H21.0714C21.6966 84.0746 22.2961 83.7973 22.7382 83.3038C23.1802 82.8102 23.4286 82.1407 23.4286 81.4426V63.0187H4.57143V81.4426ZM17.9286 67.4053C17.9286 67.1726 18.0114 66.9495 18.1587 66.785C18.3061 66.6204 18.5059 66.528 18.7143 66.528C18.9227 66.528 19.1225 66.6204 19.2699 66.785C19.4172 66.9495 19.5 67.1726 19.5 67.4053V79.688C19.5 79.9207 19.4172 80.1438 19.2699 80.3084C19.1225 80.4729 18.9227 80.5653 18.7143 80.5653C18.5059 80.5653 18.3061 80.4729 18.1587 80.3084C18.0114 80.1438 17.9286 79.9207 17.9286 79.688V67.4053ZM13.2143 67.4053C13.2143 67.1726 13.2971 66.9495 13.4444 66.785C13.5918 66.6204 13.7916 66.528 14 66.528C14.2084 66.528 14.4082 66.6204 14.5556 66.785C14.7029 66.9495 14.7857 67.1726 14.7857 67.4053V79.688C14.7857 79.9207 14.7029 80.1438 14.5556 80.3084C14.4082 80.4729 14.2084 80.5653 14 80.5653C13.7916 80.5653 13.5918 80.4729 13.4444 80.3084C13.2971 80.1438 13.2143 79.9207 13.2143 79.688V67.4053ZM8.5 67.4053C8.5 67.1726 8.58278 66.9495 8.73013 66.785C8.87748 66.6204 9.07733 66.528 9.28571 66.528C9.4941 66.528 9.69395 66.6204 9.8413 66.785C9.98865 66.9495 10.0714 67.1726 10.0714 67.4053V79.688C10.0714 79.9207 9.98865 80.1438 9.8413 80.3084C9.69395 80.4729 9.4941 80.5653 9.28571 80.5653C9.07733 80.5653 8.87748 80.4729 8.73013 80.3084C8.58278 80.1438 8.5 79.9207 8.5 79.688V67.4053ZM24.2143 57.7547H18.3214L17.8598 56.7293C17.762 56.5101 17.6114 56.3257 17.4249 56.1968C17.2384 56.068 17.0233 55.9998 16.804 56H11.1911C10.9722 55.9991 10.7576 56.067 10.5717 56.196C10.3859 56.3249 10.2363 56.5098 10.1402 56.7293L9.67857 57.7547H3.78571C3.57733 57.7547 3.37748 57.8471 3.23013 58.0116C3.08278 58.1762 3 58.3993 3 58.632V60.3867C3 60.6194 3.08278 60.8425 3.23013 61.007C3.37748 61.1716 3.57733 61.264 3.78571 61.264H24.2143C24.4227 61.264 24.6225 61.1716 24.7699 61.007C24.9172 60.8425 25 60.6194 25 60.3867V58.632C25 58.3993 24.9172 58.1762 24.7699 58.0116C24.6225 57.8471 24.4227 57.7547 24.2143 57.7547V57.7547Z" fill="black"/>
<path d="M15.2383 9.73529C16.171 9.73529 17.0654 10.1199 17.7249 10.8046C18.3844 11.4892 18.7549 12.4178 18.7549 13.386C18.7549 13.7088 18.8784 14.0183 19.0982 14.2465C19.318 14.4747 19.6162 14.6029 19.9271 14.6029C20.2379 14.6029 20.5361 14.4747 20.7559 14.2465C20.9757 14.0183 21.0992 13.7088 21.0992 13.386C21.0992 11.7723 20.4818 10.2247 19.3826 9.08359C18.2835 7.94252 16.7927 7.30147 15.2383 7.30147C14.9275 7.30147 14.6293 7.42968 14.4095 7.6579C14.1897 7.88611 14.0662 8.19564 14.0662 8.51838C14.0662 8.84113 14.1897 9.15065 14.4095 9.37887C14.6293 9.60708 14.9275 9.73529 15.2383 9.73529V9.73529Z" fill="#231F20"/>
<path d="M15.2383 4.86764C17.4145 4.86764 19.5016 5.76511 21.0403 7.36261C22.5791 8.96012 23.4436 11.1268 23.4436 13.386C23.4436 13.7088 23.5671 14.0183 23.7869 14.2465C24.0068 14.4747 24.3049 14.6029 24.6158 14.6029C24.9267 14.6029 25.2248 14.4747 25.4446 14.2465C25.6645 14.0183 25.788 13.7088 25.788 13.386C25.788 10.4813 24.6765 7.69557 22.698 5.64164C20.7196 3.58771 18.0363 2.43382 15.2383 2.43382C14.9275 2.43382 14.6293 2.56203 14.4095 2.79024C14.1897 3.01846 14.0662 3.32798 14.0662 3.65073C14.0662 3.97347 14.1897 4.283 14.4095 4.51121C14.6293 4.73943 14.9275 4.86764 15.2383 4.86764V4.86764Z" fill="#231F20"/>
<path d="M25.495 19.361C25.4306 19.1657 25.3193 18.9906 25.1716 18.8522C25.024 18.7138 24.8448 18.6167 24.6511 18.5701L17.618 16.9029C17.4271 16.8579 17.2284 16.8634 17.04 16.9186C16.8516 16.9739 16.6796 17.0773 16.5396 17.2193C16.3755 17.3775 16.3638 17.3896 15.6018 18.8986C13.0737 17.6892 11.0479 15.5775 9.89332 12.9479C11.382 12.1691 11.3937 12.1691 11.5461 11.9866C11.6829 11.8412 11.7825 11.6626 11.8357 11.467C11.8889 11.2715 11.8941 11.0652 11.8509 10.867L10.245 3.65074C10.2 3.44958 10.1065 3.2636 9.9732 3.11032C9.83991 2.95704 9.67123 2.84149 9.48306 2.77456C9.20932 2.67306 8.92664 2.59969 8.63909 2.55552C8.34282 2.4842 8.0405 2.44344 7.73651 2.43383C6.30646 2.43383 4.93497 3.02359 3.92377 4.07338C2.91257 5.12317 2.34448 6.54699 2.34448 8.03161C2.35069 12.9999 4.25453 17.7629 7.63852 21.276C11.0225 24.7891 15.6104 26.7656 20.3961 26.772C21.1041 26.772 21.8053 26.6272 22.4595 26.3459C23.1137 26.0646 23.7081 25.6523 24.2088 25.1325C24.7095 24.6127 25.1067 23.9956 25.3776 23.3164C25.6486 22.6373 25.7881 21.9093 25.7881 21.1742C25.7884 20.8645 25.7649 20.5552 25.7178 20.2494C25.6685 19.9471 25.594 19.6499 25.495 19.361V19.361Z" fill="#231F20"/>
</svg>
