<svg width="32" height="33" viewBox="0 0 32 33" fill="none" xmlns="http://www.w3.org/2000/svg">
<path d="M6.66663 17.5445C6.66663 15.6776 6.66663 14.7441 7.03257 13.9236C7.39852 13.1031 8.08578 12.4956 9.4603 11.2806L10.7936 10.102C13.2781 7.90598 14.5203 6.80795 16 6.80795C17.4797 6.80795 18.7219 7.90598 21.2063 10.102L22.5396 11.2806C23.9141 12.4956 24.6014 13.1031 24.9673 13.9236C25.3333 14.7441 25.3333 15.6776 25.3333 17.5445V23.375C25.3333 25.9677 25.3333 27.2641 24.5522 28.0696C23.7712 28.875 22.5141 28.875 20 28.875H12C9.4858 28.875 8.22872 28.875 7.44767 28.0696C6.66663 27.2641 6.66663 25.9677 6.66663 23.375V17.5445Z" stroke="black" stroke-width="2"/>
<path d="M19.3333 28.875V21.625C19.3333 21.0727 18.8856 20.625 18.3333 20.625H13.6666C13.1143 20.625 12.6666 21.0727 12.6666 21.625V28.875" stroke="black" stroke-width="2" stroke-linecap="round" stroke-linejoin="round"/>
</svg>
