<svg width="45" height="59" viewBox="0 0 45 59" fill="none" xmlns="http://www.w3.org/2000/svg">
<g filter="url(#filter0_d_11_59)">
<path d="M9.00772 7.40943C9.18399 6.673 9.27213 6.30479 9.54453 6.08989C9.81693 5.875 10.1955 5.875 10.9528 5.875H34.0472C34.8045 5.875 35.1831 5.875 35.4555 6.08989C35.7279 6.30479 35.816 6.673 35.9923 7.40943L38.7848 19.0761C39.0568 20.2123 39.1928 20.7804 38.8925 21.161C38.5922 21.5417 38.0081 21.5417 36.8398 21.5417H35.2873C33.6584 21.5417 32.844 21.5417 32.2831 21.0632C31.7223 20.5848 31.594 19.7805 31.3373 18.172L31.135 16.9043C31.0602 16.4356 31.0228 16.2013 30.9375 16.2013C30.8522 16.2013 30.8148 16.4356 30.74 16.9043L30.5171 18.3014C30.2806 19.7835 30.1623 20.5245 29.6725 20.9906C29.62 21.0405 29.565 21.0875 29.5074 21.1314C28.97 21.5417 28.2196 21.5417 26.7188 21.5417C25.2179 21.5417 24.4675 21.5417 23.9301 21.1314C23.8725 21.0875 23.8175 21.0405 23.765 20.9906C23.2752 20.5245 23.1569 19.7835 22.9204 18.3014L22.6975 16.9043C22.6227 16.4356 22.5853 16.2013 22.5 16.2013C22.4147 16.2013 22.3773 16.4356 22.3025 16.9043L22.0796 18.3014C21.8431 19.7835 21.7248 20.5245 21.235 20.9906C21.1825 21.0405 21.1275 21.0875 21.0699 21.1314C20.5325 21.5417 19.7821 21.5417 18.2812 21.5417C16.7804 21.5417 16.03 21.5417 15.4926 21.1314C15.435 21.0875 15.38 21.0405 15.3275 20.9906C14.8377 20.5245 14.7194 19.7835 14.4829 18.3014L14.26 16.9043C14.1852 16.4356 14.1478 16.2013 14.0625 16.2013C13.9772 16.2013 13.9398 16.4356 13.865 16.9043L13.6627 18.172C13.406 19.7805 13.2777 20.5848 12.7169 21.0632C12.156 21.5417 11.3416 21.5417 9.71269 21.5417H8.16022C6.99193 21.5417 6.40778 21.5417 6.1075 21.161C5.80722 20.7804 5.9432 20.2123 6.21516 19.0761L9.00772 7.40943Z" fill="black"/>
<path fill-rule="evenodd" clip-rule="evenodd" d="M9.3756 23.0417C9.375 23.2131 9.375 23.3934 9.375 23.5833V41.0833C9.375 42.0261 9.375 42.4975 9.66789 42.7904C9.96079 43.0833 10.4322 43.0833 11.375 43.0833H18.75V34.2917C18.75 33.7394 19.1977 33.2917 19.75 33.2917H25.25C25.8023 33.2917 26.25 33.7394 26.25 34.2917V43.0833H33.625C34.5678 43.0833 35.0392 43.0833 35.3321 42.7904C35.625 42.4975 35.625 42.0261 35.625 41.0833V23.5833C35.625 23.3934 35.625 23.2131 35.6244 23.0417H35.2873L35.2071 23.0417C34.4619 23.0418 33.7699 23.0418 33.1982 22.9702C32.5644 22.8908 31.8973 22.7057 31.3096 22.2044C31.1704 22.0856 31.048 21.9596 30.9399 21.8284C30.8686 21.9136 30.7911 21.9968 30.7064 22.0773C30.6147 22.1646 30.5183 22.2468 30.4176 22.3237C29.8523 22.7553 29.232 22.9126 28.6471 22.9804C28.1173 23.0418 27.4794 23.0417 26.7925 23.0417H26.7925L26.7188 23.0417L26.645 23.0417H26.645C25.9581 23.0417 25.3202 23.0418 24.7904 22.9804C24.2055 22.9126 23.5852 22.7553 23.0199 22.3237C22.9192 22.2468 22.8228 22.1646 22.7311 22.0773C22.6474 21.9977 22.5706 21.9154 22.5 21.8312C22.4294 21.9154 22.3526 21.9977 22.2689 22.0773C22.1772 22.1646 22.0808 22.2468 21.9801 22.3237C21.4148 22.7553 20.7945 22.9126 20.2096 22.9804C19.6798 23.0418 19.0419 23.0417 18.355 23.0417H18.355L18.2812 23.0417L18.2075 23.0417H18.2075C17.5206 23.0417 16.8827 23.0418 16.3529 22.9804C15.768 22.9126 15.1477 22.7553 14.5824 22.3237C14.4817 22.2468 14.3853 22.1646 14.2936 22.0773C14.2089 21.9968 14.1314 21.9136 14.0601 21.8284C13.952 21.9596 13.8296 22.0856 13.6904 22.2044C13.1027 22.7057 12.4356 22.8908 11.8018 22.9702C11.2301 23.0418 10.5381 23.0418 9.79292 23.0417L9.71269 23.0417H9.3756ZM10.1062 20.0413C10.7268 20.0396 11.126 20.0314 11.4288 19.9935C11.5935 19.9729 11.6776 19.9486 11.7165 19.9341C11.7342 19.9275 11.7415 19.9233 11.7423 19.9229L11.7433 19.9221L11.7443 19.9211C11.7449 19.9204 11.7502 19.9139 11.7595 19.8974C11.7799 19.8613 11.8171 19.7821 11.8635 19.6227C11.8655 19.6155 11.8676 19.6083 11.8697 19.601C11.0435 19.6357 10.4999 19.7382 10.1062 20.0413ZM16.2439 19.5833C16.2474 19.5963 16.2509 19.6091 16.2544 19.6216C16.296 19.7698 16.3293 19.8452 16.3481 19.8808C16.3562 19.8962 16.3611 19.9031 16.3622 19.9046C16.3749 19.9166 16.3881 19.9279 16.402 19.9385C16.4036 19.9393 16.4112 19.9431 16.4276 19.9487C16.4658 19.9617 16.5455 19.9826 16.6984 20.0004C17.0344 20.0393 17.4953 20.0417 18.2812 20.0417C19.0672 20.0417 19.5281 20.0393 19.8641 20.0004C20.017 19.9826 20.0967 19.9617 20.1349 19.9487C20.1513 19.9431 20.1589 19.9393 20.1605 19.9385C20.1744 19.9279 20.1876 19.9166 20.2003 19.9046C20.2014 19.9031 20.2063 19.8962 20.2144 19.8808C20.2332 19.8452 20.2665 19.7698 20.3081 19.6216C20.3116 19.6091 20.3151 19.5963 20.3186 19.5833H16.2439ZM24.6814 19.5833C24.6849 19.5963 24.6884 19.6091 24.6919 19.6216C24.7335 19.7698 24.7668 19.8452 24.7856 19.8808C24.7937 19.8962 24.7986 19.9031 24.7997 19.9046C24.8124 19.9166 24.8256 19.9279 24.8395 19.9385C24.8411 19.9393 24.8487 19.9431 24.8651 19.9487C24.9033 19.9617 24.983 19.9826 25.1359 20.0004C25.4719 20.0393 25.9328 20.0417 26.7188 20.0417C27.5047 20.0417 27.9656 20.0393 28.3016 20.0004C28.4545 19.9826 28.5342 19.9617 28.5724 19.9487C28.5888 19.9431 28.5964 19.9393 28.598 19.9385C28.6119 19.9279 28.6251 19.9166 28.6378 19.9046C28.6389 19.9031 28.6438 19.8962 28.6519 19.8808C28.6707 19.8452 28.704 19.7698 28.7456 19.6216C28.7491 19.6091 28.7526 19.5963 28.7561 19.5833H24.6814ZM33.1303 19.601C33.9565 19.6357 34.5001 19.7382 34.8938 20.0413C34.2732 20.0396 33.874 20.0314 33.5712 19.9935C33.4065 19.9729 33.3224 19.9486 33.2835 19.9341C33.2658 19.9275 33.2585 19.9233 33.2577 19.9229L33.2567 19.9221L33.2557 19.9211C33.2551 19.9204 33.2498 19.9139 33.2405 19.8974C33.2201 19.8613 33.1829 19.7821 33.1365 19.6227C33.1345 19.6155 33.1324 19.6083 33.1303 19.601ZM20.75 43.0833H24.25V35.2917H20.75V43.0833Z" fill="black"/>
</g>
<defs>
<filter id="filter0_d_11_59" x="-5" y="0" width="55" height="62" filterUnits="userSpaceOnUse" color-interpolation-filters="sRGB">
<feFlood flood-opacity="0" result="BackgroundImageFix"/>
<feColorMatrix in="SourceAlpha" type="matrix" values="0 0 0 0 0 0 0 0 0 0 0 0 0 0 0 0 0 0 127 0" result="hardAlpha"/>
<feOffset dy="10"/>
<feGaussianBlur stdDeviation="2.5"/>
<feComposite in2="hardAlpha" operator="out"/>
<feColorMatrix type="matrix" values="0 0 0 0 0 0 0 0 0 0 0 0 0 0 0 0 0 0 0.25 0"/>
<feBlend mode="normal" in2="BackgroundImageFix" result="effect1_dropShadow_11_59"/>
<feBlend mode="normal" in="SourceGraphic" in2="effect1_dropShadow_11_59" result="shape"/>
</filter>
</defs>
</svg>
