<svg width="58" height="56" viewBox="0 0 58 56" fill="none" xmlns="http://www.w3.org/2000/svg">
<path d="M1 1H2.93103V2.86207H1V1Z" fill="black"/>
<path d="M2.93103 1H4.86207V2.86207H2.93103V1Z" fill="black"/>
<path d="M4.86207 1H6.7931V2.86207H4.86207V1Z" fill="black"/>
<path d="M6.7931 1H8.72414V2.86207H6.7931V1Z" fill="black"/>
<path d="M8.72414 1H10.6552V2.86207H8.72414V1Z" fill="black"/>
<path d="M10.6552 1H12.5862V2.86207H10.6552V1Z" fill="black"/>
<path d="M12.5862 1H14.5172V2.86207H12.5862V1Z" fill="black"/>
<path d="M18.3793 1H20.3103V2.86207H18.3793V1Z" fill="black"/>
<path d="M22.2414 1H24.1724V2.86207H22.2414V1Z" fill="black"/>
<path d="M24.1724 1H26.1034V2.86207H24.1724V1Z" fill="black"/>
<path d="M26.1034 1H28.0345V2.86207H26.1034V1Z" fill="black"/>
<path d="M31.8966 1H33.8276V2.86207H31.8966V1Z" fill="black"/>
<path d="M33.8276 1H35.7586V2.86207H33.8276V1Z" fill="black"/>
<path d="M37.6897 1H39.6207V2.86207H37.6897V1Z" fill="black"/>
<path d="M39.6207 1H41.5517V2.86207H39.6207V1Z" fill="black"/>
<path d="M43.4828 1H45.4138V2.86207H43.4828V1Z" fill="black"/>
<path d="M45.4138 1H47.3448V2.86207H45.4138V1Z" fill="black"/>
<path d="M47.3448 1H49.2759V2.86207H47.3448V1Z" fill="black"/>
<path d="M49.2759 1H51.2069V2.86207H49.2759V1Z" fill="black"/>
<path d="M51.2069 1H53.1379V2.86207H51.2069V1Z" fill="black"/>
<path d="M53.1379 1H55.069V2.86207H53.1379V1Z" fill="black"/>
<path d="M55.069 1H57V2.86207H55.069V1Z" fill="black"/>
<path d="M1 2.86207H2.93103V4.72414H1V2.86207Z" fill="black"/>
<path d="M12.5862 2.86207H14.5172V4.72414H12.5862V2.86207Z" fill="black"/>
<path d="M16.4483 2.86207H18.3793V4.72414H16.4483V2.86207Z" fill="black"/>
<path d="M18.3793 2.86207H20.3103V4.72414H18.3793V2.86207Z" fill="black"/>
<path d="M20.3103 2.86207H22.2414V4.72414H20.3103V2.86207Z" fill="black"/>
<path d="M33.8276 2.86207H35.7586V4.72414H33.8276V2.86207Z" fill="black"/>
<path d="M35.7586 2.86207H37.6897V4.72414H35.7586V2.86207Z" fill="black"/>
<path d="M39.6207 2.86207H41.5517V4.72414H39.6207V2.86207Z" fill="black"/>
<path d="M43.4828 2.86207H45.4138V4.72414H43.4828V2.86207Z" fill="black"/>
<path d="M55.069 2.86207H57V4.72414H55.069V2.86207Z" fill="black"/>
<path d="M1 4.72414H2.93103V6.58621H1V4.72414Z" fill="black"/>
<path d="M4.86207 4.72414H6.7931V6.58621H4.86207V4.72414Z" fill="black"/>
<path d="M6.7931 4.72414H8.72414V6.58621H6.7931V4.72414Z" fill="black"/>
<path d="M8.72414 4.72414H10.6552V6.58621H8.72414V4.72414Z" fill="black"/>
<path d="M12.5862 4.72414H14.5172V6.58621H12.5862V4.72414Z" fill="black"/>
<path d="M16.4483 4.72414H18.3793V6.58621H16.4483V4.72414Z" fill="black"/>
<path d="M18.3793 4.72414H20.3103V6.58621H18.3793V4.72414Z" fill="black"/>
<path d="M20.3103 4.72414H22.2414V6.58621H20.3103V4.72414Z" fill="black"/>
<path d="M22.2414 4.72414H24.1724V6.58621H22.2414V4.72414Z" fill="black"/>
<path d="M26.1034 4.72414H28.0345V6.58621H26.1034V4.72414Z" fill="black"/>
<path d="M33.8276 4.72414H35.7586V6.58621H33.8276V4.72414Z" fill="black"/>
<path d="M37.6897 4.72414H39.6207V6.58621H37.6897V4.72414Z" fill="black"/>
<path d="M39.6207 4.72414H41.5517V6.58621H39.6207V4.72414Z" fill="black"/>
<path d="M43.4828 4.72414H45.4138V6.58621H43.4828V4.72414Z" fill="black"/>
<path d="M47.3448 4.72414H49.2759V6.58621H47.3448V4.72414Z" fill="black"/>
<path d="M49.2759 4.72414H51.2069V6.58621H49.2759V4.72414Z" fill="black"/>
<path d="M51.2069 4.72414H53.1379V6.58621H51.2069V4.72414Z" fill="black"/>
<path d="M55.069 4.72414H57V6.58621H55.069V4.72414Z" fill="black"/>
<path d="M1 6.58621H2.93103V8.44828H1V6.58621Z" fill="black"/>
<path d="M4.86207 6.58621H6.7931V8.44828H4.86207V6.58621Z" fill="black"/>
<path d="M6.7931 6.58621H8.72414V8.44828H6.7931V6.58621Z" fill="black"/>
<path d="M8.72414 6.58621H10.6552V8.44828H8.72414V6.58621Z" fill="black"/>
<path d="M12.5862 6.58621H14.5172V8.44828H12.5862V6.58621Z" fill="black"/>
<path d="M16.4483 6.58621H18.3793V8.44828H16.4483V6.58621Z" fill="black"/>
<path d="M26.1034 6.58621H28.0345V8.44828H26.1034V6.58621Z" fill="black"/>
<path d="M33.8276 6.58621H35.7586V8.44828H33.8276V6.58621Z" fill="black"/>
<path d="M39.6207 6.58621H41.5517V8.44828H39.6207V6.58621Z" fill="black"/>
<path d="M43.4828 6.58621H45.4138V8.44828H43.4828V6.58621Z" fill="black"/>
<path d="M47.3448 6.58621H49.2759V8.44828H47.3448V6.58621Z" fill="black"/>
<path d="M49.2759 6.58621H51.2069V8.44828H49.2759V6.58621Z" fill="black"/>
<path d="M51.2069 6.58621H53.1379V8.44828H51.2069V6.58621Z" fill="black"/>
<path d="M55.069 6.58621H57V8.44828H55.069V6.58621Z" fill="black"/>
<path d="M1 8.44828H2.93103V10.3103H1V8.44828Z" fill="black"/>
<path d="M4.86207 8.44828H6.7931V10.3103H4.86207V8.44828Z" fill="black"/>
<path d="M6.7931 8.44828H8.72414V10.3103H6.7931V8.44828Z" fill="black"/>
<path d="M8.72414 8.44828H10.6552V10.3103H8.72414V8.44828Z" fill="black"/>
<path d="M12.5862 8.44828H14.5172V10.3103H12.5862V8.44828Z" fill="black"/>
<path d="M16.4483 8.44828H18.3793V10.3103H16.4483V8.44828Z" fill="black"/>
<path d="M18.3793 8.44828H20.3103V10.3103H18.3793V8.44828Z" fill="black"/>
<path d="M20.3103 8.44828H22.2414V10.3103H20.3103V8.44828Z" fill="black"/>
<path d="M24.1724 8.44828H26.1034V10.3103H24.1724V8.44828Z" fill="black"/>
<path d="M28.0345 8.44828H29.9655V10.3103H28.0345V8.44828Z" fill="black"/>
<path d="M31.8966 8.44828H33.8276V10.3103H31.8966V8.44828Z" fill="black"/>
<path d="M35.7586 8.44828H37.6897V10.3103H35.7586V8.44828Z" fill="black"/>
<path d="M43.4828 8.44828H45.4138V10.3103H43.4828V8.44828Z" fill="black"/>
<path d="M47.3448 8.44828H49.2759V10.3103H47.3448V8.44828Z" fill="black"/>
<path d="M49.2759 8.44828H51.2069V10.3103H49.2759V8.44828Z" fill="black"/>
<path d="M51.2069 8.44828H53.1379V10.3103H51.2069V8.44828Z" fill="black"/>
<path d="M55.069 8.44828H57V10.3103H55.069V8.44828Z" fill="black"/>
<path d="M1 10.3103H2.93103V12.1724H1V10.3103Z" fill="black"/>
<path d="M12.5862 10.3103H14.5172V12.1724H12.5862V10.3103Z" fill="black"/>
<path d="M16.4483 10.3103H18.3793V12.1724H16.4483V10.3103Z" fill="black"/>
<path d="M20.3103 10.3103H22.2414V12.1724H20.3103V10.3103Z" fill="black"/>
<path d="M24.1724 10.3103H26.1034V12.1724H24.1724V10.3103Z" fill="black"/>
<path d="M28.0345 10.3103H29.9655V12.1724H28.0345V10.3103Z" fill="black"/>
<path d="M29.9655 10.3103H31.8966V12.1724H29.9655V10.3103Z" fill="black"/>
<path d="M31.8966 10.3103H33.8276V12.1724H31.8966V10.3103Z" fill="black"/>
<path d="M33.8276 10.3103H35.7586V12.1724H33.8276V10.3103Z" fill="black"/>
<path d="M35.7586 10.3103H37.6897V12.1724H35.7586V10.3103Z" fill="black"/>
<path d="M39.6207 10.3103H41.5517V12.1724H39.6207V10.3103Z" fill="black"/>
<path d="M43.4828 10.3103H45.4138V12.1724H43.4828V10.3103Z" fill="black"/>
<path d="M55.069 10.3103H57V12.1724H55.069V10.3103Z" fill="black"/>
<path d="M1 12.1724H2.93103V14.0345H1V12.1724Z" fill="black"/>
<path d="M2.93103 12.1724H4.86207V14.0345H2.93103V12.1724Z" fill="black"/>
<path d="M4.86207 12.1724H6.7931V14.0345H4.86207V12.1724Z" fill="black"/>
<path d="M6.7931 12.1724H8.72414V14.0345H6.7931V12.1724Z" fill="black"/>
<path d="M8.72414 12.1724H10.6552V14.0345H8.72414V12.1724Z" fill="black"/>
<path d="M10.6552 12.1724H12.5862V14.0345H10.6552V12.1724Z" fill="black"/>
<path d="M12.5862 12.1724H14.5172V14.0345H12.5862V12.1724Z" fill="black"/>
<path d="M16.4483 12.1724H18.3793V14.0345H16.4483V12.1724Z" fill="black"/>
<path d="M20.3103 12.1724H22.2414V14.0345H20.3103V12.1724Z" fill="black"/>
<path d="M24.1724 12.1724H26.1034V14.0345H24.1724V12.1724Z" fill="black"/>
<path d="M28.0345 12.1724H29.9655V14.0345H28.0345V12.1724Z" fill="black"/>
<path d="M31.8966 12.1724H33.8276V14.0345H31.8966V12.1724Z" fill="black"/>
<path d="M35.7586 12.1724H37.6897V14.0345H35.7586V12.1724Z" fill="black"/>
<path d="M39.6207 12.1724H41.5517V14.0345H39.6207V12.1724Z" fill="black"/>
<path d="M43.4828 12.1724H45.4138V14.0345H43.4828V12.1724Z" fill="black"/>
<path d="M45.4138 12.1724H47.3448V14.0345H45.4138V12.1724Z" fill="black"/>
<path d="M47.3448 12.1724H49.2759V14.0345H47.3448V12.1724Z" fill="black"/>
<path d="M49.2759 12.1724H51.2069V14.0345H49.2759V12.1724Z" fill="black"/>
<path d="M51.2069 12.1724H53.1379V14.0345H51.2069V12.1724Z" fill="black"/>
<path d="M53.1379 12.1724H55.069V14.0345H53.1379V12.1724Z" fill="black"/>
<path d="M55.069 12.1724H57V14.0345H55.069V12.1724Z" fill="black"/>
<path d="M22.2414 14.0345H24.1724V15.8966H22.2414V14.0345Z" fill="black"/>
<path d="M24.1724 14.0345H26.1034V15.8966H24.1724V14.0345Z" fill="black"/>
<path d="M26.1034 14.0345H28.0345V15.8966H26.1034V14.0345Z" fill="black"/>
<path d="M29.9655 14.0345H31.8966V15.8966H29.9655V14.0345Z" fill="black"/>
<path d="M31.8966 14.0345H33.8276V15.8966H31.8966V14.0345Z" fill="black"/>
<path d="M33.8276 14.0345H35.7586V15.8966H33.8276V14.0345Z" fill="black"/>
<path d="M37.6897 14.0345H39.6207V15.8966H37.6897V14.0345Z" fill="black"/>
<path d="M39.6207 14.0345H41.5517V15.8966H39.6207V14.0345Z" fill="black"/>
<path d="M4.86207 15.8966H6.7931V17.7586H4.86207V15.8966Z" fill="black"/>
<path d="M10.6552 15.8966H12.5862V17.7586H10.6552V15.8966Z" fill="black"/>
<path d="M12.5862 15.8966H14.5172V17.7586H12.5862V15.8966Z" fill="black"/>
<path d="M14.5172 15.8966H16.4483V17.7586H14.5172V15.8966Z" fill="black"/>
<path d="M16.4483 15.8966H18.3793V17.7586H16.4483V15.8966Z" fill="black"/>
<path d="M22.2414 15.8966H24.1724V17.7586H22.2414V15.8966Z" fill="black"/>
<path d="M33.8276 15.8966H35.7586V17.7586H33.8276V15.8966Z" fill="black"/>
<path d="M37.6897 15.8966H39.6207V17.7586H37.6897V15.8966Z" fill="black"/>
<path d="M39.6207 15.8966H41.5517V17.7586H39.6207V15.8966Z" fill="black"/>
<path d="M41.5517 15.8966H43.4828V17.7586H41.5517V15.8966Z" fill="black"/>
<path d="M45.4138 15.8966H47.3448V17.7586H45.4138V15.8966Z" fill="black"/>
<path d="M47.3448 15.8966H49.2759V17.7586H47.3448V15.8966Z" fill="black"/>
<path d="M49.2759 15.8966H51.2069V17.7586H49.2759V15.8966Z" fill="black"/>
<path d="M51.2069 15.8966H53.1379V17.7586H51.2069V15.8966Z" fill="black"/>
<path d="M53.1379 15.8966H55.069V17.7586H53.1379V15.8966Z" fill="black"/>
<path d="M1 17.7586H2.93103V19.6207H1V17.7586Z" fill="black"/>
<path d="M2.93103 17.7586H4.86207V19.6207H2.93103V17.7586Z" fill="black"/>
<path d="M6.7931 17.7586H8.72414V19.6207H6.7931V17.7586Z" fill="black"/>
<path d="M8.72414 17.7586H10.6552V19.6207H8.72414V17.7586Z" fill="black"/>
<path d="M14.5172 17.7586H16.4483V19.6207H14.5172V17.7586Z" fill="black"/>
<path d="M16.4483 17.7586H18.3793V19.6207H16.4483V17.7586Z" fill="black"/>
<path d="M24.1724 17.7586H26.1034V19.6207H24.1724V17.7586Z" fill="black"/>
<path d="M31.8966 17.7586H33.8276V19.6207H31.8966V17.7586Z" fill="black"/>
<path d="M33.8276 17.7586H35.7586V19.6207H33.8276V17.7586Z" fill="black"/>
<path d="M39.6207 17.7586H41.5517V19.6207H39.6207V17.7586Z" fill="black"/>
<path d="M43.4828 17.7586H45.4138V19.6207H43.4828V17.7586Z" fill="black"/>
<path d="M45.4138 17.7586H47.3448V19.6207H45.4138V17.7586Z" fill="black"/>
<path d="M51.2069 17.7586H53.1379V19.6207H51.2069V17.7586Z" fill="black"/>
<path d="M53.1379 17.7586H55.069V19.6207H53.1379V17.7586Z" fill="black"/>
<path d="M55.069 17.7586H57V19.6207H55.069V17.7586Z" fill="black"/>
<path d="M1 19.6207H2.93103V21.4828H1V19.6207Z" fill="black"/>
<path d="M2.93103 19.6207H4.86207V21.4828H2.93103V19.6207Z" fill="black"/>
<path d="M4.86207 19.6207H6.7931V21.4828H4.86207V19.6207Z" fill="black"/>
<path d="M6.7931 19.6207H8.72414V21.4828H6.7931V19.6207Z" fill="black"/>
<path d="M12.5862 19.6207H14.5172V21.4828H12.5862V19.6207Z" fill="black"/>
<path d="M14.5172 19.6207H16.4483V21.4828H14.5172V19.6207Z" fill="black"/>
<path d="M39.6207 19.6207H41.5517V21.4828H39.6207V19.6207Z" fill="black"/>
<path d="M41.5517 19.6207H43.4828V21.4828H41.5517V19.6207Z" fill="black"/>
<path d="M45.4138 19.6207H47.3448V21.4828H45.4138V19.6207Z" fill="black"/>
<path d="M51.2069 19.6207H53.1379V21.4828H51.2069V19.6207Z" fill="black"/>
<path d="M55.069 19.6207H57V21.4828H55.069V19.6207Z" fill="black"/>
<path d="M1 21.4828H2.93103V23.3448H1V21.4828Z" fill="black"/>
<path d="M6.7931 21.4828H8.72414V23.3448H6.7931V21.4828Z" fill="black"/>
<path d="M10.6552 21.4828H12.5862V23.3448H10.6552V21.4828Z" fill="black"/>
<path d="M16.4483 21.4828H18.3793V23.3448H16.4483V21.4828Z" fill="black"/>
<path d="M37.6897 21.4828H39.6207V23.3448H37.6897V21.4828Z" fill="black"/>
<path d="M39.6207 21.4828H41.5517V23.3448H39.6207V21.4828Z" fill="black"/>
<path d="M43.4828 21.4828H45.4138V23.3448H43.4828V21.4828Z" fill="black"/>
<path d="M45.4138 21.4828H47.3448V23.3448H45.4138V21.4828Z" fill="black"/>
<path d="M47.3448 21.4828H49.2759V23.3448H47.3448V21.4828Z" fill="black"/>
<path d="M49.2759 21.4828H51.2069V23.3448H49.2759V21.4828Z" fill="black"/>
<path d="M1 23.3448H2.93103V25.2069H1V23.3448Z" fill="black"/>
<path d="M4.86207 23.3448H6.7931V25.2069H4.86207V23.3448Z" fill="black"/>
<path d="M6.7931 23.3448H8.72414V25.2069H6.7931V23.3448Z" fill="black"/>
<path d="M10.6552 23.3448H12.5862V25.2069H10.6552V23.3448Z" fill="black"/>
<path d="M12.5862 23.3448H14.5172V25.2069H12.5862V23.3448Z" fill="black"/>
<path d="M16.4483 23.3448H18.3793V25.2069H16.4483V23.3448Z" fill="black"/>
<path d="M41.5517 23.3448H43.4828V25.2069H41.5517V23.3448Z" fill="black"/>
<path d="M43.4828 23.3448H45.4138V25.2069H43.4828V23.3448Z" fill="black"/>
<path d="M49.2759 23.3448H51.2069V25.2069H49.2759V23.3448Z" fill="black"/>
<path d="M53.1379 23.3448H55.069V25.2069H53.1379V23.3448Z" fill="black"/>
<path d="M1 25.2069H2.93103V27.069H1V25.2069Z" fill="black"/>
<path d="M8.72414 25.2069H10.6552V27.069H8.72414V25.2069Z" fill="black"/>
<path d="M10.6552 25.2069H12.5862V27.069H10.6552V25.2069Z" fill="black"/>
<path d="M18.3793 25.2069H20.3103V27.069H18.3793V25.2069Z" fill="black"/>
<path d="M37.6897 25.2069H39.6207V27.069H37.6897V25.2069Z" fill="black"/>
<path d="M39.6207 25.2069H41.5517V27.069H39.6207V25.2069Z" fill="black"/>
<path d="M43.4828 25.2069H45.4138V27.069H43.4828V25.2069Z" fill="black"/>
<path d="M49.2759 25.2069H51.2069V27.069H49.2759V25.2069Z" fill="black"/>
<path d="M55.069 25.2069H57V27.069H55.069V25.2069Z" fill="black"/>
<path d="M1 27.069H2.93103V28.931H1V27.069Z" fill="black"/>
<path d="M2.93103 27.069H4.86207V28.931H2.93103V27.069Z" fill="black"/>
<path d="M10.6552 27.069H12.5862V28.931H10.6552V27.069Z" fill="black"/>
<path d="M12.5862 27.069H14.5172V28.931H12.5862V27.069Z" fill="black"/>
<path d="M18.3793 27.069H20.3103V28.931H18.3793V27.069Z" fill="black"/>
<path d="M37.6897 27.069H39.6207V28.931H37.6897V27.069Z" fill="black"/>
<path d="M41.5517 27.069H43.4828V28.931H41.5517V27.069Z" fill="black"/>
<path d="M43.4828 27.069H45.4138V28.931H43.4828V27.069Z" fill="black"/>
<path d="M49.2759 27.069H51.2069V28.931H49.2759V27.069Z" fill="black"/>
<path d="M51.2069 27.069H53.1379V28.931H51.2069V27.069Z" fill="black"/>
<path d="M55.069 27.069H57V28.931H55.069V27.069Z" fill="black"/>
<path d="M1 28.931H2.93103V30.7931H1V28.931Z" fill="black"/>
<path d="M6.7931 28.931H8.72414V30.7931H6.7931V28.931Z" fill="black"/>
<path d="M10.6552 28.931H12.5862V30.7931H10.6552V28.931Z" fill="black"/>
<path d="M14.5172 28.931H16.4483V30.7931H14.5172V28.931Z" fill="black"/>
<path d="M16.4483 28.931H18.3793V30.7931H16.4483V28.931Z" fill="black"/>
<path d="M18.3793 28.931H20.3103V30.7931H18.3793V28.931Z" fill="black"/>
<path d="M37.6897 28.931H39.6207V30.7931H37.6897V28.931Z" fill="black"/>
<path d="M39.6207 28.931H41.5517V30.7931H39.6207V28.931Z" fill="black"/>
<path d="M41.5517 28.931H43.4828V30.7931H41.5517V28.931Z" fill="black"/>
<path d="M43.4828 28.931H45.4138V30.7931H43.4828V28.931Z" fill="black"/>
<path d="M49.2759 28.931H51.2069V30.7931H49.2759V28.931Z" fill="black"/>
<path d="M55.069 28.931H57V30.7931H55.069V28.931Z" fill="black"/>
<path d="M6.7931 30.7931H8.72414V32.6552H6.7931V30.7931Z" fill="black"/>
<path d="M12.5862 30.7931H14.5172V32.6552H12.5862V30.7931Z" fill="black"/>
<path d="M14.5172 30.7931H16.4483V32.6552H14.5172V30.7931Z" fill="black"/>
<path d="M18.3793 30.7931H20.3103V32.6552H18.3793V30.7931Z" fill="black"/>
<path d="M37.6897 30.7931H39.6207V32.6552H37.6897V30.7931Z" fill="black"/>
<path d="M39.6207 30.7931H41.5517V32.6552H39.6207V30.7931Z" fill="black"/>
<path d="M43.4828 30.7931H45.4138V32.6552H43.4828V30.7931Z" fill="black"/>
<path d="M45.4138 30.7931H47.3448V32.6552H45.4138V30.7931Z" fill="black"/>
<path d="M55.069 30.7931H57V32.6552H55.069V30.7931Z" fill="black"/>
<path d="M8.72414 32.6552H10.6552V34.5172H8.72414V32.6552Z" fill="black"/>
<path d="M10.6552 32.6552H12.5862V34.5172H10.6552V32.6552Z" fill="black"/>
<path d="M14.5172 32.6552H16.4483V34.5172H14.5172V32.6552Z" fill="black"/>
<path d="M16.4483 32.6552H18.3793V34.5172H16.4483V32.6552Z" fill="black"/>
<path d="M43.4828 32.6552H45.4138V34.5172H43.4828V32.6552Z" fill="black"/>
<path d="M49.2759 32.6552H51.2069V34.5172H49.2759V32.6552Z" fill="black"/>
<path d="M55.069 32.6552H57V34.5172H55.069V32.6552Z" fill="black"/>
<path d="M1 34.5172H2.93103V36.3793H1V34.5172Z" fill="black"/>
<path d="M2.93103 34.5172H4.86207V36.3793H2.93103V34.5172Z" fill="black"/>
<path d="M10.6552 34.5172H12.5862V36.3793H10.6552V34.5172Z" fill="black"/>
<path d="M12.5862 34.5172H14.5172V36.3793H12.5862V34.5172Z" fill="black"/>
<path d="M16.4483 34.5172H18.3793V36.3793H16.4483V34.5172Z" fill="black"/>
<path d="M37.6897 34.5172H39.6207V36.3793H37.6897V34.5172Z" fill="black"/>
<path d="M47.3448 34.5172H49.2759V36.3793H47.3448V34.5172Z" fill="black"/>
<path d="M55.069 34.5172H57V36.3793H55.069V34.5172Z" fill="black"/>
<path d="M4.86207 36.3793H6.7931V38.2414H4.86207V36.3793Z" fill="black"/>
<path d="M6.7931 36.3793H8.72414V38.2414H6.7931V36.3793Z" fill="black"/>
<path d="M10.6552 36.3793H12.5862V38.2414H10.6552V36.3793Z" fill="black"/>
<path d="M16.4483 36.3793H18.3793V38.2414H16.4483V36.3793Z" fill="black"/>
<path d="M18.3793 36.3793H20.3103V38.2414H18.3793V36.3793Z" fill="black"/>
<path d="M20.3103 36.3793H22.2414V38.2414H20.3103V36.3793Z" fill="black"/>
<path d="M22.2414 36.3793H24.1724V38.2414H22.2414V36.3793Z" fill="black"/>
<path d="M24.1724 36.3793H26.1034V38.2414H24.1724V36.3793Z" fill="black"/>
<path d="M26.1034 36.3793H28.0345V38.2414H26.1034V36.3793Z" fill="black"/>
<path d="M28.0345 36.3793H29.9655V38.2414H28.0345V36.3793Z" fill="black"/>
<path d="M31.8966 36.3793H33.8276V38.2414H31.8966V36.3793Z" fill="black"/>
<path d="M35.7586 36.3793H37.6897V38.2414H35.7586V36.3793Z" fill="black"/>
<path d="M39.6207 36.3793H41.5517V38.2414H39.6207V36.3793Z" fill="black"/>
<path d="M41.5517 36.3793H43.4828V38.2414H41.5517V36.3793Z" fill="black"/>
<path d="M43.4828 36.3793H45.4138V38.2414H43.4828V36.3793Z" fill="black"/>
<path d="M49.2759 36.3793H51.2069V38.2414H49.2759V36.3793Z" fill="black"/>
<path d="M53.1379 36.3793H55.069V38.2414H53.1379V36.3793Z" fill="black"/>
<path d="M1 38.2414H2.93103V40.1034H1V38.2414Z" fill="black"/>
<path d="M2.93103 38.2414H4.86207V40.1034H2.93103V38.2414Z" fill="black"/>
<path d="M4.86207 38.2414H6.7931V40.1034H4.86207V38.2414Z" fill="black"/>
<path d="M6.7931 38.2414H8.72414V40.1034H6.7931V38.2414Z" fill="black"/>
<path d="M8.72414 38.2414H10.6552V40.1034H8.72414V38.2414Z" fill="black"/>
<path d="M10.6552 38.2414H12.5862V40.1034H10.6552V38.2414Z" fill="black"/>
<path d="M12.5862 38.2414H14.5172V40.1034H12.5862V38.2414Z" fill="black"/>
<path d="M14.5172 38.2414H16.4483V40.1034H14.5172V38.2414Z" fill="black"/>
<path d="M20.3103 38.2414H22.2414V40.1034H20.3103V38.2414Z" fill="black"/>
<path d="M22.2414 38.2414H24.1724V40.1034H22.2414V38.2414Z" fill="black"/>
<path d="M24.1724 38.2414H26.1034V40.1034H24.1724V38.2414Z" fill="black"/>
<path d="M39.6207 38.2414H41.5517V40.1034H39.6207V38.2414Z" fill="black"/>
<path d="M41.5517 38.2414H43.4828V40.1034H41.5517V38.2414Z" fill="black"/>
<path d="M43.4828 38.2414H45.4138V40.1034H43.4828V38.2414Z" fill="black"/>
<path d="M45.4138 38.2414H47.3448V40.1034H45.4138V38.2414Z" fill="black"/>
<path d="M47.3448 38.2414H49.2759V40.1034H47.3448V38.2414Z" fill="black"/>
<path d="M49.2759 38.2414H51.2069V40.1034H49.2759V38.2414Z" fill="black"/>
<path d="M55.069 38.2414H57V40.1034H55.069V38.2414Z" fill="black"/>
<path d="M16.4483 40.1034H18.3793V41.9655H16.4483V40.1034Z" fill="black"/>
<path d="M18.3793 40.1034H20.3103V41.9655H18.3793V40.1034Z" fill="black"/>
<path d="M20.3103 40.1034H22.2414V41.9655H20.3103V40.1034Z" fill="black"/>
<path d="M22.2414 40.1034H24.1724V41.9655H22.2414V40.1034Z" fill="black"/>
<path d="M28.0345 40.1034H29.9655V41.9655H28.0345V40.1034Z" fill="black"/>
<path d="M29.9655 40.1034H31.8966V41.9655H29.9655V40.1034Z" fill="black"/>
<path d="M33.8276 40.1034H35.7586V41.9655H33.8276V40.1034Z" fill="black"/>
<path d="M37.6897 40.1034H39.6207V41.9655H37.6897V40.1034Z" fill="black"/>
<path d="M39.6207 40.1034H41.5517V41.9655H39.6207V40.1034Z" fill="black"/>
<path d="M47.3448 40.1034H49.2759V41.9655H47.3448V40.1034Z" fill="black"/>
<path d="M49.2759 40.1034H51.2069V41.9655H49.2759V40.1034Z" fill="black"/>
<path d="M55.069 40.1034H57V41.9655H55.069V40.1034Z" fill="black"/>
<path d="M1 41.9655H2.93103V43.8276H1V41.9655Z" fill="black"/>
<path d="M2.93103 41.9655H4.86207V43.8276H2.93103V41.9655Z" fill="black"/>
<path d="M4.86207 41.9655H6.7931V43.8276H4.86207V41.9655Z" fill="black"/>
<path d="M6.7931 41.9655H8.72414V43.8276H6.7931V41.9655Z" fill="black"/>
<path d="M8.72414 41.9655H10.6552V43.8276H8.72414V41.9655Z" fill="black"/>
<path d="M10.6552 41.9655H12.5862V43.8276H10.6552V41.9655Z" fill="black"/>
<path d="M12.5862 41.9655H14.5172V43.8276H12.5862V41.9655Z" fill="black"/>
<path d="M16.4483 41.9655H18.3793V43.8276H16.4483V41.9655Z" fill="black"/>
<path d="M26.1034 41.9655H28.0345V43.8276H26.1034V41.9655Z" fill="black"/>
<path d="M29.9655 41.9655H31.8966V43.8276H29.9655V41.9655Z" fill="black"/>
<path d="M31.8966 41.9655H33.8276V43.8276H31.8966V41.9655Z" fill="black"/>
<path d="M33.8276 41.9655H35.7586V43.8276H33.8276V41.9655Z" fill="black"/>
<path d="M39.6207 41.9655H41.5517V43.8276H39.6207V41.9655Z" fill="black"/>
<path d="M43.4828 41.9655H45.4138V43.8276H43.4828V41.9655Z" fill="black"/>
<path d="M47.3448 41.9655H49.2759V43.8276H47.3448V41.9655Z" fill="black"/>
<path d="M49.2759 41.9655H51.2069V43.8276H49.2759V41.9655Z" fill="black"/>
<path d="M51.2069 41.9655H53.1379V43.8276H51.2069V41.9655Z" fill="black"/>
<path d="M55.069 41.9655H57V43.8276H55.069V41.9655Z" fill="black"/>
<path d="M1 43.8276H2.93103V45.6897H1V43.8276Z" fill="black"/>
<path d="M12.5862 43.8276H14.5172V45.6897H12.5862V43.8276Z" fill="black"/>
<path d="M16.4483 43.8276H18.3793V45.6897H16.4483V43.8276Z" fill="black"/>
<path d="M20.3103 43.8276H22.2414V45.6897H20.3103V43.8276Z" fill="black"/>
<path d="M24.1724 43.8276H26.1034V45.6897H24.1724V43.8276Z" fill="black"/>
<path d="M26.1034 43.8276H28.0345V45.6897H26.1034V43.8276Z" fill="black"/>
<path d="M28.0345 43.8276H29.9655V45.6897H28.0345V43.8276Z" fill="black"/>
<path d="M33.8276 43.8276H35.7586V45.6897H33.8276V43.8276Z" fill="black"/>
<path d="M37.6897 43.8276H39.6207V45.6897H37.6897V43.8276Z" fill="black"/>
<path d="M39.6207 43.8276H41.5517V45.6897H39.6207V43.8276Z" fill="black"/>
<path d="M47.3448 43.8276H49.2759V45.6897H47.3448V43.8276Z" fill="black"/>
<path d="M49.2759 43.8276H51.2069V45.6897H49.2759V43.8276Z" fill="black"/>
<path d="M55.069 43.8276H57V45.6897H55.069V43.8276Z" fill="black"/>
<path d="M1 45.6897H2.93103V47.5517H1V45.6897Z" fill="black"/>
<path d="M4.86207 45.6897H6.7931V47.5517H4.86207V45.6897Z" fill="black"/>
<path d="M6.7931 45.6897H8.72414V47.5517H6.7931V45.6897Z" fill="black"/>
<path d="M8.72414 45.6897H10.6552V47.5517H8.72414V45.6897Z" fill="black"/>
<path d="M12.5862 45.6897H14.5172V47.5517H12.5862V45.6897Z" fill="black"/>
<path d="M20.3103 45.6897H22.2414V47.5517H20.3103V45.6897Z" fill="black"/>
<path d="M22.2414 45.6897H24.1724V47.5517H22.2414V45.6897Z" fill="black"/>
<path d="M26.1034 45.6897H28.0345V47.5517H26.1034V45.6897Z" fill="black"/>
<path d="M31.8966 45.6897H33.8276V47.5517H31.8966V45.6897Z" fill="black"/>
<path d="M35.7586 45.6897H37.6897V47.5517H35.7586V45.6897Z" fill="black"/>
<path d="M37.6897 45.6897H39.6207V47.5517H37.6897V45.6897Z" fill="black"/>
<path d="M39.6207 45.6897H41.5517V47.5517H39.6207V45.6897Z" fill="black"/>
<path d="M41.5517 45.6897H43.4828V47.5517H41.5517V45.6897Z" fill="black"/>
<path d="M43.4828 45.6897H45.4138V47.5517H43.4828V45.6897Z" fill="black"/>
<path d="M45.4138 45.6897H47.3448V47.5517H45.4138V45.6897Z" fill="black"/>
<path d="M47.3448 45.6897H49.2759V47.5517H47.3448V45.6897Z" fill="black"/>
<path d="M1 47.5517H2.93103V49.4138H1V47.5517Z" fill="black"/>
<path d="M4.86207 47.5517H6.7931V49.4138H4.86207V47.5517Z" fill="black"/>
<path d="M6.7931 47.5517H8.72414V49.4138H6.7931V47.5517Z" fill="black"/>
<path d="M8.72414 47.5517H10.6552V49.4138H8.72414V47.5517Z" fill="black"/>
<path d="M12.5862 47.5517H14.5172V49.4138H12.5862V47.5517Z" fill="black"/>
<path d="M18.3793 47.5517H20.3103V49.4138H18.3793V47.5517Z" fill="black"/>
<path d="M20.3103 47.5517H22.2414V49.4138H20.3103V47.5517Z" fill="black"/>
<path d="M22.2414 47.5517H24.1724V49.4138H22.2414V47.5517Z" fill="black"/>
<path d="M26.1034 47.5517H28.0345V49.4138H26.1034V47.5517Z" fill="black"/>
<path d="M28.0345 47.5517H29.9655V49.4138H28.0345V47.5517Z" fill="black"/>
<path d="M29.9655 47.5517H31.8966V49.4138H29.9655V47.5517Z" fill="black"/>
<path d="M31.8966 47.5517H33.8276V49.4138H31.8966V47.5517Z" fill="black"/>
<path d="M33.8276 47.5517H35.7586V49.4138H33.8276V47.5517Z" fill="black"/>
<path d="M37.6897 47.5517H39.6207V49.4138H37.6897V47.5517Z" fill="black"/>
<path d="M39.6207 47.5517H41.5517V49.4138H39.6207V47.5517Z" fill="black"/>
<path d="M45.4138 47.5517H47.3448V49.4138H45.4138V47.5517Z" fill="black"/>
<path d="M47.3448 47.5517H49.2759V49.4138H47.3448V47.5517Z" fill="black"/>
<path d="M49.2759 47.5517H51.2069V49.4138H49.2759V47.5517Z" fill="black"/>
<path d="M51.2069 47.5517H53.1379V49.4138H51.2069V47.5517Z" fill="black"/>
<path d="M53.1379 47.5517H55.069V49.4138H53.1379V47.5517Z" fill="black"/>
<path d="M1 49.4138H2.93103V51.2759H1V49.4138Z" fill="black"/>
<path d="M4.86207 49.4138H6.7931V51.2759H4.86207V49.4138Z" fill="black"/>
<path d="M6.7931 49.4138H8.72414V51.2759H6.7931V49.4138Z" fill="black"/>
<path d="M8.72414 49.4138H10.6552V51.2759H8.72414V49.4138Z" fill="black"/>
<path d="M12.5862 49.4138H14.5172V51.2759H12.5862V49.4138Z" fill="black"/>
<path d="M16.4483 49.4138H18.3793V51.2759H16.4483V49.4138Z" fill="black"/>
<path d="M18.3793 49.4138H20.3103V51.2759H18.3793V49.4138Z" fill="black"/>
<path d="M20.3103 49.4138H22.2414V51.2759H20.3103V49.4138Z" fill="black"/>
<path d="M22.2414 49.4138H24.1724V51.2759H22.2414V49.4138Z" fill="black"/>
<path d="M28.0345 49.4138H29.9655V51.2759H28.0345V49.4138Z" fill="black"/>
<path d="M41.5517 49.4138H43.4828V51.2759H41.5517V49.4138Z" fill="black"/>
<path d="M47.3448 49.4138H49.2759V51.2759H47.3448V49.4138Z" fill="black"/>
<path d="M51.2069 49.4138H53.1379V51.2759H51.2069V49.4138Z" fill="black"/>
<path d="M53.1379 49.4138H55.069V51.2759H53.1379V49.4138Z" fill="black"/>
<path d="M55.069 49.4138H57V51.2759H55.069V49.4138Z" fill="black"/>
<path d="M1 51.2759H2.93103V53.1379H1V51.2759Z" fill="black"/>
<path d="M12.5862 51.2759H14.5172V53.1379H12.5862V51.2759Z" fill="black"/>
<path d="M24.1724 51.2759H26.1034V53.1379H24.1724V51.2759Z" fill="black"/>
<path d="M28.0345 51.2759H29.9655V53.1379H28.0345V51.2759Z" fill="black"/>
<path d="M31.8966 51.2759H33.8276V53.1379H31.8966V51.2759Z" fill="black"/>
<path d="M35.7586 51.2759H37.6897V53.1379H35.7586V51.2759Z" fill="black"/>
<path d="M39.6207 51.2759H41.5517V53.1379H39.6207V51.2759Z" fill="black"/>
<path d="M41.5517 51.2759H43.4828V53.1379H41.5517V51.2759Z" fill="black"/>
<path d="M43.4828 51.2759H45.4138V53.1379H43.4828V51.2759Z" fill="black"/>
<path d="M49.2759 51.2759H51.2069V53.1379H49.2759V51.2759Z" fill="black"/>
<path d="M1 53.1379H2.93103V55H1V53.1379Z" fill="black"/>
<path d="M2.93103 53.1379H4.86207V55H2.93103V53.1379Z" fill="black"/>
<path d="M4.86207 53.1379H6.7931V55H4.86207V53.1379Z" fill="black"/>
<path d="M6.7931 53.1379H8.72414V55H6.7931V53.1379Z" fill="black"/>
<path d="M8.72414 53.1379H10.6552V55H8.72414V53.1379Z" fill="black"/>
<path d="M10.6552 53.1379H12.5862V55H10.6552V53.1379Z" fill="black"/>
<path d="M12.5862 53.1379H14.5172V55H12.5862V53.1379Z" fill="black"/>
<path d="M20.3103 53.1379H22.2414V55H20.3103V53.1379Z" fill="black"/>
<path d="M22.2414 53.1379H24.1724V55H22.2414V53.1379Z" fill="black"/>
<path d="M24.1724 53.1379H26.1034V55H24.1724V53.1379Z" fill="black"/>
<path d="M28.0345 53.1379H29.9655V55H28.0345V53.1379Z" fill="black"/>
<path d="M29.9655 53.1379H31.8966V55H29.9655V53.1379Z" fill="black"/>
<path d="M39.6207 53.1379H41.5517V55H39.6207V53.1379Z" fill="black"/>
<path d="M45.4138 53.1379H47.3448V55H45.4138V53.1379Z" fill="black"/>
<path d="M47.3448 53.1379H49.2759V55H47.3448V53.1379Z" fill="black"/>
<path d="M49.2759 53.1379H51.2069V55H49.2759V53.1379Z" fill="black"/>
<path d="M55.069 53.1379H57V55H55.069V53.1379Z" fill="black"/>
<path d="M2.93103 1H1V2.86207M2.93103 1V2.86207M2.93103 1H4.86207M2.93103 2.86207H1M2.93103 2.86207H4.86207M2.93103 2.86207V4.72414M1 2.86207V4.72414M4.86207 1V2.86207M4.86207 1H6.7931M4.86207 2.86207H6.7931M6.7931 1V2.86207M6.7931 1H8.72414M6.7931 2.86207H8.72414M8.72414 1V2.86207M8.72414 1H10.6552M8.72414 2.86207H10.6552M10.6552 1V2.86207M10.6552 1H12.5862M10.6552 2.86207H12.5862M12.5862 1V2.86207M12.5862 1H14.5172V2.86207M12.5862 2.86207H14.5172M12.5862 2.86207V4.72414M14.5172 2.86207V4.72414M20.3103 2.86207V1H18.3793V2.86207M20.3103 2.86207H18.3793M20.3103 2.86207V4.72414M20.3103 2.86207H22.2414M18.3793 2.86207H16.4483V4.72414M18.3793 2.86207V4.72414M24.1724 1H22.2414V2.86207M24.1724 1V2.86207M24.1724 1H26.1034M24.1724 2.86207H22.2414M24.1724 2.86207H26.1034M22.2414 2.86207V4.72414M26.1034 1V2.86207M26.1034 1H28.0345V2.86207H26.1034M33.8276 1H31.8966V2.86207H33.8276M33.8276 1V2.86207M33.8276 1H35.7586V2.86207M33.8276 2.86207H35.7586M33.8276 2.86207V4.72414M35.7586 2.86207V4.72414M35.7586 2.86207H37.6897M39.6207 1H37.6897V2.86207M39.6207 1V2.86207M39.6207 1H41.5517V2.86207M39.6207 2.86207H37.6897M39.6207 2.86207H41.5517M39.6207 2.86207V4.72414M37.6897 2.86207V4.72414M41.5517 2.86207V4.72414M45.4138 1H43.4828V2.86207M45.4138 1V2.86207M45.4138 1H47.3448M45.4138 2.86207H43.4828M45.4138 2.86207H47.3448M45.4138 2.86207V4.72414M43.4828 2.86207V4.72414M47.3448 1V2.86207M47.3448 1H49.2759M47.3448 2.86207H49.2759M49.2759 1V2.86207M49.2759 1H51.2069M49.2759 2.86207H51.2069M51.2069 1V2.86207M51.2069 1H53.1379M51.2069 2.86207H53.1379M53.1379 1V2.86207M53.1379 1H55.069M53.1379 2.86207H55.069M55.069 1V2.86207M55.069 1H57V2.86207M55.069 2.86207H57M55.069 2.86207V4.72414M57 2.86207V4.72414M2.93103 4.72414H1M2.93103 4.72414V6.58621M1 4.72414V6.58621M14.5172 4.72414H12.5862M14.5172 4.72414V6.58621M12.5862 4.72414V6.58621M18.3793 4.72414H16.4483M18.3793 4.72414H20.3103M18.3793 4.72414V6.58621M16.4483 4.72414V6.58621M20.3103 4.72414H22.2414M20.3103 4.72414V6.58621M22.2414 4.72414V6.58621M22.2414 4.72414H24.1724V6.58621H22.2414M35.7586 4.72414H33.8276M35.7586 4.72414H37.6897M35.7586 4.72414V6.58621M33.8276 4.72414V6.58621M37.6897 4.72414H39.6207M37.6897 4.72414V6.58621H39.6207M41.5517 4.72414H39.6207M41.5517 4.72414V6.58621M39.6207 4.72414V6.58621M45.4138 4.72414H43.4828M45.4138 4.72414V6.58621M43.4828 4.72414V6.58621M57 4.72414H55.069M57 4.72414V6.58621M55.069 4.72414V6.58621M2.93103 6.58621H1M2.93103 6.58621V8.44828M1 6.58621V8.44828M6.7931 4.72414H4.86207V6.58621M6.7931 4.72414V6.58621M6.7931 4.72414H8.72414M6.7931 6.58621H4.86207M6.7931 6.58621H8.72414M6.7931 6.58621V8.44828M4.86207 6.58621V8.44828M8.72414 4.72414V6.58621M8.72414 4.72414H10.6552V6.58621M8.72414 6.58621H10.6552M8.72414 6.58621V8.44828M10.6552 6.58621V8.44828M14.5172 6.58621H12.5862M14.5172 6.58621V8.44828M12.5862 6.58621V8.44828M18.3793 6.58621H16.4483M18.3793 6.58621H20.3103M18.3793 6.58621V8.44828M16.4483 6.58621V8.44828M20.3103 6.58621H22.2414M28.0345 6.58621V4.72414H26.1034V6.58621M28.0345 6.58621H26.1034M28.0345 6.58621V8.44828M26.1034 6.58621V8.44828M35.7586 6.58621H33.8276M35.7586 6.58621V8.44828M33.8276 6.58621V8.44828M39.6207 6.58621H41.5517M39.6207 6.58621V8.44828H41.5517V6.58621M45.4138 6.58621H43.4828M45.4138 6.58621V8.44828M43.4828 6.58621V8.44828M49.2759 4.72414H47.3448V6.58621M49.2759 4.72414V6.58621M49.2759 4.72414H51.2069M49.2759 6.58621H47.3448M49.2759 6.58621H51.2069M49.2759 6.58621V8.44828M47.3448 6.58621V8.44828M51.2069 4.72414V6.58621M51.2069 4.72414H53.1379V6.58621M51.2069 6.58621H53.1379M51.2069 6.58621V8.44828M53.1379 6.58621V8.44828M57 6.58621H55.069M57 6.58621V8.44828M55.069 6.58621V8.44828M2.93103 8.44828H1M2.93103 8.44828V10.3103M1 8.44828V10.3103M6.7931 8.44828H4.86207M6.7931 8.44828H8.72414M6.7931 8.44828V10.3103M4.86207 8.44828V10.3103H6.7931M8.72414 8.44828H10.6552M8.72414 8.44828V10.3103M10.6552 8.44828V10.3103H8.72414M14.5172 8.44828H12.5862M14.5172 8.44828V10.3103M12.5862 8.44828V10.3103M18.3793 8.44828H16.4483M18.3793 8.44828V10.3103M18.3793 8.44828H20.3103M16.4483 8.44828V10.3103M28.0345 8.44828H26.1034M28.0345 8.44828H29.9655V10.3103M28.0345 8.44828V10.3103M26.1034 8.44828H24.1724V10.3103M26.1034 8.44828V10.3103M35.7586 8.44828H33.8276M35.7586 8.44828H37.6897V10.3103M35.7586 8.44828V10.3103M33.8276 8.44828H31.8966V10.3103M33.8276 8.44828V10.3103M45.4138 8.44828H43.4828M45.4138 8.44828V10.3103M43.4828 8.44828V10.3103M49.2759 8.44828H47.3448M49.2759 8.44828H51.2069M49.2759 8.44828V10.3103M47.3448 8.44828V10.3103H49.2759M51.2069 8.44828H53.1379M51.2069 8.44828V10.3103M53.1379 8.44828V10.3103H51.2069M57 8.44828H55.069M57 8.44828V10.3103M55.069 8.44828V10.3103M2.93103 10.3103H1M2.93103 10.3103V12.1724M1 10.3103V12.1724M6.7931 10.3103H8.72414M14.5172 10.3103H12.5862M14.5172 10.3103V12.1724M12.5862 10.3103V12.1724M18.3793 10.3103H16.4483M18.3793 10.3103H20.3103M18.3793 10.3103V12.1724M16.4483 10.3103V12.1724M20.3103 8.44828V10.3103M20.3103 8.44828H22.2414V10.3103M20.3103 10.3103H22.2414M20.3103 10.3103V12.1724M22.2414 10.3103V12.1724M26.1034 10.3103H24.1724M26.1034 10.3103V12.1724M24.1724 10.3103V12.1724M29.9655 10.3103H28.0345M29.9655 10.3103V12.1724M29.9655 10.3103H31.8966M28.0345 10.3103V12.1724M33.8276 10.3103H31.8966M33.8276 10.3103V12.1724M33.8276 10.3103H35.7586M31.8966 10.3103V12.1724M37.6897 10.3103H35.7586M37.6897 10.3103V12.1724M35.7586 10.3103V12.1724M45.4138 10.3103H43.4828M45.4138 10.3103V12.1724M43.4828 10.3103V12.1724M49.2759 10.3103H51.2069M57 10.3103H55.069M57 10.3103V12.1724M55.069 10.3103V12.1724M2.93103 12.1724H1M2.93103 12.1724V14.0345M2.93103 12.1724H4.86207M1 12.1724V14.0345H2.93103M14.5172 12.1724H12.5862M14.5172 12.1724V14.0345H12.5862M12.5862 12.1724H10.6552M12.5862 12.1724V14.0345M18.3793 12.1724H16.4483M18.3793 12.1724V14.0345H16.4483V12.1724M22.2414 12.1724H20.3103M22.2414 12.1724V14.0345M20.3103 12.1724V14.0345H22.2414M26.1034 12.1724H24.1724M26.1034 12.1724V14.0345M24.1724 12.1724V14.0345M29.9655 12.1724H28.0345M29.9655 12.1724H31.8966M29.9655 12.1724V14.0345M28.0345 12.1724V14.0345M31.8966 12.1724H33.8276M31.8966 12.1724V14.0345M33.8276 12.1724H35.7586M33.8276 12.1724V14.0345M35.7586 12.1724H37.6897M35.7586 12.1724V14.0345M37.6897 12.1724V14.0345M41.5517 12.1724V10.3103H39.6207V12.1724M41.5517 12.1724H39.6207M41.5517 12.1724V14.0345M39.6207 12.1724V14.0345M45.4138 12.1724H43.4828M45.4138 12.1724V14.0345M45.4138 12.1724H47.3448M43.4828 12.1724V14.0345H45.4138M57 12.1724H55.069M57 12.1724V14.0345H55.069M55.069 12.1724H53.1379M55.069 12.1724V14.0345M2.93103 14.0345H4.86207M4.86207 12.1724V14.0345M4.86207 12.1724H6.7931M4.86207 14.0345H6.7931M6.7931 12.1724V14.0345M6.7931 12.1724H8.72414M6.7931 14.0345H8.72414M8.72414 12.1724V14.0345M8.72414 12.1724H10.6552M8.72414 14.0345H10.6552M10.6552 12.1724V14.0345M10.6552 14.0345H12.5862M22.2414 14.0345H24.1724M22.2414 14.0345V15.8966M26.1034 14.0345H24.1724M26.1034 14.0345V15.8966M26.1034 14.0345H28.0345M24.1724 14.0345V15.8966M29.9655 14.0345H28.0345M29.9655 14.0345H31.8966M29.9655 14.0345V15.8966H31.8966M28.0345 14.0345V15.8966H26.1034M33.8276 14.0345H31.8966M33.8276 14.0345V15.8966M33.8276 14.0345H35.7586M31.8966 14.0345V15.8966M37.6897 14.0345H35.7586M37.6897 14.0345H39.6207M37.6897 14.0345V15.8966M35.7586 14.0345V15.8966M41.5517 14.0345H39.6207M41.5517 14.0345V15.8966M39.6207 14.0345V15.8966M45.4138 14.0345H47.3448M47.3448 12.1724V14.0345M47.3448 12.1724H49.2759M47.3448 14.0345H49.2759M49.2759 12.1724V14.0345M49.2759 12.1724H51.2069M49.2759 14.0345H51.2069M51.2069 12.1724V14.0345M51.2069 12.1724H53.1379M51.2069 14.0345H53.1379M53.1379 12.1724V14.0345M53.1379 14.0345H55.069M24.1724 15.8966H22.2414M24.1724 15.8966H26.1034M24.1724 15.8966V17.7586M22.2414 15.8966V17.7586H24.1724M31.8966 15.8966H33.8276M33.8276 15.8966H35.7586M33.8276 15.8966V17.7586M35.7586 15.8966V17.7586M39.6207 15.8966H37.6897M39.6207 15.8966H41.5517M39.6207 15.8966V17.7586M37.6897 15.8966V17.7586H39.6207M41.5517 15.8966V17.7586M41.5517 15.8966H43.4828V17.7586M6.7931 17.7586V15.8966H4.86207V17.7586M6.7931 17.7586H4.86207M6.7931 17.7586H8.72414M6.7931 17.7586V19.6207M4.86207 17.7586H2.93103M4.86207 17.7586V19.6207M12.5862 15.8966H10.6552V17.7586M12.5862 15.8966V17.7586M12.5862 15.8966H14.5172M12.5862 17.7586H10.6552M12.5862 17.7586H14.5172M10.6552 17.7586H8.72414M10.6552 17.7586V19.6207H8.72414M14.5172 15.8966V17.7586M14.5172 15.8966H16.4483M14.5172 17.7586H16.4483M14.5172 17.7586V19.6207M16.4483 15.8966V17.7586M16.4483 15.8966H18.3793V17.7586M16.4483 17.7586H18.3793M16.4483 17.7586V19.6207M18.3793 17.7586V19.6207H16.4483M24.1724 17.7586H26.1034V19.6207H24.1724V17.7586ZM35.7586 17.7586H33.8276M35.7586 17.7586V19.6207H33.8276M33.8276 17.7586H31.8966V19.6207H33.8276M33.8276 17.7586V19.6207M39.6207 17.7586H41.5517M39.6207 17.7586V19.6207M41.5517 17.7586H43.4828M41.5517 17.7586V19.6207M43.4828 17.7586H45.4138M43.4828 17.7586V19.6207M47.3448 15.8966H45.4138V17.7586M47.3448 15.8966V17.7586M47.3448 15.8966H49.2759M47.3448 17.7586H45.4138M47.3448 17.7586H49.2759M47.3448 17.7586V19.6207M45.4138 17.7586V19.6207M49.2759 15.8966V17.7586M49.2759 15.8966H51.2069M49.2759 17.7586H51.2069M51.2069 15.8966V17.7586M51.2069 15.8966H53.1379M51.2069 17.7586H53.1379M51.2069 17.7586V19.6207M53.1379 15.8966V17.7586M53.1379 15.8966H55.069V17.7586M53.1379 17.7586H55.069M53.1379 17.7586V19.6207M55.069 17.7586V19.6207M55.069 17.7586H57V19.6207M2.93103 17.7586H1V19.6207M2.93103 17.7586V19.6207M2.93103 19.6207H1M2.93103 19.6207H4.86207M2.93103 19.6207V21.4828M1 19.6207V21.4828M4.86207 19.6207V21.4828M4.86207 19.6207H6.7931M8.72414 17.7586V19.6207M8.72414 19.6207H6.7931M8.72414 19.6207V21.4828M6.7931 19.6207V21.4828M16.4483 19.6207H14.5172M16.4483 19.6207V21.4828M14.5172 19.6207H12.5862V21.4828M14.5172 19.6207V21.4828M41.5517 19.6207H39.6207M41.5517 19.6207V21.4828M41.5517 19.6207H43.4828M39.6207 19.6207V21.4828M45.4138 19.6207H43.4828M45.4138 19.6207H47.3448M45.4138 19.6207V21.4828M43.4828 19.6207V21.4828M47.3448 19.6207V21.4828M53.1379 19.6207H51.2069M53.1379 19.6207H55.069M53.1379 19.6207V21.4828H51.2069M51.2069 19.6207V21.4828M55.069 19.6207H57M55.069 19.6207V21.4828H57V19.6207M2.93103 21.4828H1M2.93103 21.4828H4.86207M2.93103 21.4828V23.3448M1 21.4828V23.3448M4.86207 21.4828H6.7931M6.7931 21.4828H8.72414M6.7931 21.4828V23.3448M8.72414 21.4828V23.3448M14.5172 21.4828H12.5862M14.5172 21.4828H16.4483M12.5862 21.4828H10.6552V23.3448M12.5862 21.4828V23.3448M16.4483 21.4828H18.3793V23.3448M16.4483 21.4828V23.3448M41.5517 21.4828H39.6207M41.5517 21.4828H43.4828M41.5517 21.4828V23.3448M39.6207 21.4828H37.6897V23.3448H39.6207M39.6207 21.4828V23.3448M43.4828 21.4828H45.4138M43.4828 21.4828V23.3448M47.3448 21.4828H45.4138M47.3448 21.4828V23.3448M47.3448 21.4828H49.2759M45.4138 21.4828V23.3448M51.2069 21.4828H49.2759M51.2069 21.4828V23.3448M2.93103 23.3448H1M2.93103 23.3448V25.2069M1 23.3448V25.2069M8.72414 23.3448H6.7931M8.72414 23.3448V25.2069M6.7931 23.3448H4.86207V25.2069H6.7931M6.7931 23.3448V25.2069M12.5862 23.3448H10.6552M12.5862 23.3448V25.2069M12.5862 23.3448H14.5172V25.2069H12.5862M10.6552 23.3448V25.2069M18.3793 23.3448H16.4483M18.3793 23.3448V25.2069M16.4483 23.3448V25.2069H18.3793M39.6207 23.3448H41.5517M41.5517 23.3448H43.4828M41.5517 23.3448V25.2069M45.4138 23.3448H43.4828M45.4138 23.3448H47.3448M45.4138 23.3448V25.2069M43.4828 23.3448V25.2069M47.3448 23.3448H49.2759M49.2759 21.4828V23.3448M49.2759 23.3448H51.2069M49.2759 23.3448V25.2069M51.2069 23.3448V25.2069M2.93103 25.2069H1M2.93103 25.2069V27.069M1 25.2069V27.069M6.7931 25.2069H8.72414M8.72414 25.2069H10.6552M8.72414 25.2069V27.069H10.6552M12.5862 25.2069H10.6552M12.5862 25.2069V27.069M10.6552 25.2069V27.069M18.3793 25.2069H20.3103V27.069M18.3793 25.2069V27.069M43.4828 25.2069H41.5517M43.4828 25.2069H45.4138M43.4828 25.2069V27.069M41.5517 25.2069H39.6207M41.5517 25.2069V27.069M45.4138 25.2069V27.069M51.2069 25.2069H49.2759M51.2069 25.2069V27.069M49.2759 25.2069V27.069M55.069 25.2069V23.3448H53.1379V25.2069H55.069ZM55.069 25.2069H57V27.069M55.069 25.2069V27.069M2.93103 27.069H1M2.93103 27.069V28.931M2.93103 27.069H4.86207V28.931H2.93103M1 27.069V28.931M10.6552 27.069H12.5862M10.6552 27.069V28.931M12.5862 27.069V28.931M12.5862 27.069H14.5172V28.931M20.3103 27.069H18.3793M20.3103 27.069V28.931M18.3793 27.069V28.931M39.6207 25.2069H37.6897V27.069M39.6207 25.2069V27.069M39.6207 27.069H37.6897M39.6207 27.069H41.5517M39.6207 27.069V28.931M37.6897 27.069V28.931M41.5517 27.069H43.4828M41.5517 27.069V28.931M45.4138 27.069H43.4828M45.4138 27.069V28.931M43.4828 27.069V28.931M51.2069 27.069H49.2759M51.2069 27.069V28.931M51.2069 27.069H53.1379V28.931H51.2069M49.2759 27.069V28.931M57 27.069H55.069M57 27.069V28.931M55.069 27.069V28.931M2.93103 28.931H1M2.93103 28.931V30.7931H1V28.931M12.5862 28.931H10.6552M12.5862 28.931H14.5172M12.5862 28.931V30.7931M10.6552 28.931V30.7931H12.5862M14.5172 28.931H16.4483M14.5172 28.931V30.7931M20.3103 28.931H18.3793M20.3103 28.931V30.7931M18.3793 28.931H16.4483M18.3793 28.931V30.7931M39.6207 28.931H37.6897M39.6207 28.931V30.7931M39.6207 28.931H41.5517M37.6897 28.931V30.7931M43.4828 28.931H41.5517M43.4828 28.931H45.4138M43.4828 28.931V30.7931M41.5517 28.931V30.7931M45.4138 28.931V30.7931M51.2069 28.931H49.2759M51.2069 28.931V30.7931H49.2759V28.931M57 28.931H55.069M57 28.931V30.7931M55.069 28.931V30.7931M8.72414 30.7931V28.931H6.7931V30.7931M8.72414 30.7931H6.7931M8.72414 30.7931V32.6552M6.7931 30.7931V32.6552H8.72414M12.5862 30.7931H14.5172M12.5862 30.7931V32.6552M16.4483 28.931V30.7931M16.4483 30.7931H14.5172M16.4483 30.7931H18.3793M16.4483 30.7931V32.6552M14.5172 30.7931V32.6552M18.3793 30.7931H20.3103M18.3793 30.7931V32.6552M20.3103 30.7931V32.6552H18.3793M39.6207 30.7931H37.6897M39.6207 30.7931H41.5517M39.6207 30.7931V32.6552M37.6897 30.7931V32.6552H39.6207M41.5517 30.7931H43.4828M41.5517 30.7931V32.6552H39.6207M43.4828 30.7931H45.4138M43.4828 30.7931V32.6552M45.4138 30.7931V32.6552M45.4138 30.7931H47.3448V32.6552H45.4138M57 30.7931H55.069M57 30.7931V32.6552M55.069 30.7931V32.6552M8.72414 32.6552H10.6552M8.72414 32.6552V34.5172H10.6552M14.5172 32.6552H12.5862M14.5172 32.6552H16.4483M14.5172 32.6552V34.5172M12.5862 32.6552H10.6552M12.5862 32.6552V34.5172M16.4483 32.6552V34.5172M16.4483 32.6552H18.3793M18.3793 32.6552V34.5172M45.4138 32.6552H43.4828M45.4138 32.6552V34.5172H43.4828V32.6552M57 32.6552H55.069M57 32.6552V34.5172M55.069 32.6552V34.5172M10.6552 32.6552V34.5172M10.6552 34.5172H12.5862M10.6552 34.5172V36.3793M12.5862 34.5172V36.3793M12.5862 34.5172H14.5172M16.4483 34.5172H14.5172M16.4483 34.5172H18.3793M16.4483 34.5172V36.3793M14.5172 34.5172V36.3793H12.5862M18.3793 34.5172V36.3793M49.2759 34.5172H51.2069V32.6552H49.2759V34.5172ZM49.2759 34.5172H47.3448V36.3793H49.2759M49.2759 34.5172V36.3793M57 34.5172H55.069M57 34.5172V36.3793H55.069M55.069 34.5172V36.3793M2.93103 34.5172H1V36.3793H2.93103M2.93103 34.5172V36.3793M2.93103 34.5172H4.86207V36.3793M2.93103 36.3793H4.86207M4.86207 36.3793H6.7931M4.86207 36.3793V38.2414M12.5862 36.3793H10.6552M12.5862 36.3793V38.2414M10.6552 36.3793V38.2414M18.3793 36.3793H16.4483M18.3793 36.3793V38.2414M18.3793 36.3793H20.3103M16.4483 36.3793V38.2414M39.6207 36.3793V34.5172H37.6897V36.3793M39.6207 36.3793H37.6897M39.6207 36.3793H41.5517M39.6207 36.3793V38.2414M37.6897 36.3793H35.7586V38.2414H37.6897V36.3793ZM49.2759 36.3793H51.2069V38.2414M49.2759 36.3793V38.2414M55.069 36.3793H53.1379V38.2414H55.069M55.069 36.3793V38.2414M6.7931 36.3793V38.2414M6.7931 36.3793H8.72414V38.2414M6.7931 38.2414H4.86207M6.7931 38.2414H8.72414M6.7931 38.2414V40.1034M4.86207 38.2414H2.93103M4.86207 38.2414V40.1034M8.72414 38.2414V40.1034M8.72414 38.2414H10.6552M12.5862 38.2414H10.6552M12.5862 38.2414V40.1034M12.5862 38.2414H14.5172M10.6552 38.2414V40.1034M18.3793 38.2414H16.4483M18.3793 38.2414H20.3103M16.4483 38.2414H14.5172M16.4483 38.2414V40.1034M20.3103 36.3793V38.2414M20.3103 36.3793H22.2414M20.3103 38.2414H22.2414M20.3103 38.2414V40.1034M22.2414 36.3793V38.2414M22.2414 36.3793H24.1724M22.2414 38.2414H24.1724M22.2414 38.2414V40.1034M24.1724 36.3793V38.2414M24.1724 36.3793H26.1034M24.1724 38.2414H26.1034M24.1724 38.2414V40.1034M26.1034 36.3793V38.2414M26.1034 36.3793H28.0345M26.1034 38.2414H28.0345M26.1034 38.2414V40.1034H24.1724M28.0345 36.3793V38.2414M28.0345 36.3793H29.9655V38.2414H28.0345M41.5517 36.3793V38.2414M41.5517 36.3793H43.4828M41.5517 38.2414H39.6207M41.5517 38.2414H43.4828M41.5517 38.2414V40.1034M39.6207 38.2414V40.1034M43.4828 36.3793V38.2414M43.4828 36.3793H45.4138V38.2414M43.4828 38.2414H45.4138M43.4828 38.2414V40.1034M45.4138 38.2414V40.1034M45.4138 38.2414H47.3448M51.2069 38.2414H49.2759M51.2069 38.2414V40.1034M49.2759 38.2414H47.3448M49.2759 38.2414V40.1034M55.069 38.2414H57V40.1034M55.069 38.2414V40.1034M2.93103 38.2414H1V40.1034H2.93103M2.93103 38.2414V40.1034M2.93103 40.1034H4.86207M4.86207 40.1034H6.7931M6.7931 40.1034H8.72414M8.72414 40.1034H10.6552M10.6552 40.1034H12.5862M12.5862 40.1034H14.5172M14.5172 38.2414V40.1034M14.5172 40.1034H16.4483M16.4483 40.1034H18.3793M16.4483 40.1034V41.9655M22.2414 40.1034H20.3103M22.2414 40.1034H24.1724M22.2414 40.1034V41.9655M20.3103 40.1034H18.3793M20.3103 40.1034V41.9655M24.1724 40.1034V41.9655H22.2414M41.5517 40.1034H39.6207M41.5517 40.1034H43.4828M41.5517 40.1034V41.9655M39.6207 40.1034H37.6897V41.9655H39.6207M39.6207 40.1034V41.9655M43.4828 40.1034H45.4138M45.4138 40.1034H47.3448M47.3448 38.2414V40.1034M47.3448 40.1034H49.2759M47.3448 40.1034V41.9655M49.2759 40.1034H51.2069M49.2759 40.1034V41.9655M51.2069 40.1034V41.9655M57 40.1034H55.069M57 40.1034V41.9655M55.069 40.1034V41.9655M18.3793 40.1034V41.9655M18.3793 41.9655H16.4483M18.3793 41.9655H20.3103M18.3793 41.9655V43.8276M16.4483 41.9655V43.8276M20.3103 41.9655H22.2414M29.9655 40.1034H28.0345V41.9655M29.9655 40.1034V41.9655M29.9655 40.1034H31.8966V41.9655M29.9655 41.9655H28.0345M29.9655 41.9655H31.8966M29.9655 41.9655V43.8276M28.0345 41.9655H26.1034V43.8276M28.0345 41.9655V43.8276M31.8966 41.9655V43.8276M31.8966 41.9655H33.8276M35.7586 41.9655V40.1034H33.8276V41.9655M35.7586 41.9655H33.8276M35.7586 41.9655V43.8276M33.8276 41.9655V43.8276M39.6207 41.9655H41.5517M39.6207 41.9655V43.8276M41.5517 41.9655V43.8276M49.2759 41.9655H47.3448M49.2759 41.9655H51.2069M49.2759 41.9655V43.8276M47.3448 41.9655V43.8276M51.2069 41.9655V43.8276M51.2069 41.9655H53.1379V43.8276H51.2069M57 41.9655H55.069M57 41.9655V43.8276M55.069 41.9655V43.8276M2.93103 41.9655H1V43.8276M2.93103 41.9655V43.8276M2.93103 41.9655H4.86207M2.93103 43.8276H1M2.93103 43.8276H4.86207M2.93103 43.8276V45.6897M1 43.8276V45.6897M4.86207 41.9655V43.8276M4.86207 41.9655H6.7931M4.86207 43.8276H6.7931M6.7931 41.9655V43.8276M6.7931 41.9655H8.72414M6.7931 43.8276H8.72414M8.72414 41.9655V43.8276M8.72414 41.9655H10.6552M8.72414 43.8276H10.6552M10.6552 41.9655V43.8276M10.6552 41.9655H12.5862M10.6552 43.8276H12.5862M12.5862 41.9655V43.8276M12.5862 41.9655H14.5172V43.8276M12.5862 43.8276H14.5172M12.5862 43.8276V45.6897M14.5172 43.8276V45.6897M18.3793 43.8276H16.4483M18.3793 43.8276V45.6897H16.4483V43.8276M28.0345 43.8276H26.1034M28.0345 43.8276V45.6897M28.0345 43.8276H29.9655M26.1034 43.8276H24.1724V45.6897M26.1034 43.8276V45.6897M31.8966 43.8276H29.9655M31.8966 43.8276H33.8276M29.9655 43.8276V45.6897H28.0345M33.8276 43.8276H35.7586M33.8276 43.8276V45.6897M35.7586 43.8276V45.6897M41.5517 43.8276H39.6207M41.5517 43.8276V45.6897M39.6207 43.8276H37.6897V45.6897M39.6207 43.8276V45.6897M49.2759 43.8276H47.3448M49.2759 43.8276H51.2069M49.2759 43.8276V45.6897M47.3448 43.8276V45.6897M51.2069 43.8276V45.6897H49.2759M57 43.8276H55.069M57 43.8276V45.6897H55.069V43.8276M2.93103 45.6897H1M2.93103 45.6897V47.5517M1 45.6897V47.5517M14.5172 45.6897H12.5862M14.5172 45.6897V47.5517M12.5862 45.6897V47.5517M22.2414 45.6897V43.8276H20.3103V45.6897M22.2414 45.6897H20.3103M22.2414 45.6897V47.5517M22.2414 45.6897H24.1724M20.3103 45.6897V47.5517M26.1034 45.6897H24.1724M26.1034 45.6897H28.0345M26.1034 45.6897V47.5517M24.1724 45.6897V47.5517M28.0345 45.6897V47.5517M35.7586 45.6897H33.8276M35.7586 45.6897H37.6897M35.7586 45.6897V47.5517M33.8276 45.6897H31.8966V47.5517M33.8276 45.6897V47.5517M39.6207 45.6897H37.6897M39.6207 45.6897H41.5517M39.6207 45.6897V47.5517M37.6897 45.6897V47.5517M41.5517 45.6897V47.5517M41.5517 45.6897H43.4828M49.2759 45.6897H47.3448M49.2759 45.6897V47.5517M47.3448 45.6897H45.4138M47.3448 45.6897V47.5517M2.93103 47.5517H1M2.93103 47.5517V49.4138M1 47.5517V49.4138M6.7931 45.6897H4.86207V47.5517M6.7931 45.6897V47.5517M6.7931 45.6897H8.72414M6.7931 47.5517H4.86207M6.7931 47.5517H8.72414M6.7931 47.5517V49.4138M4.86207 47.5517V49.4138M8.72414 45.6897V47.5517M8.72414 45.6897H10.6552V47.5517M8.72414 47.5517H10.6552M8.72414 47.5517V49.4138M10.6552 47.5517V49.4138M14.5172 47.5517H12.5862M14.5172 47.5517V49.4138M12.5862 47.5517V49.4138M22.2414 47.5517H20.3103M22.2414 47.5517H24.1724M22.2414 47.5517V49.4138M20.3103 47.5517H18.3793V49.4138M20.3103 47.5517V49.4138M24.1724 47.5517V49.4138M28.0345 47.5517H26.1034M28.0345 47.5517V49.4138M28.0345 47.5517H29.9655M26.1034 47.5517V49.4138H28.0345M33.8276 47.5517H31.8966M33.8276 47.5517V49.4138M33.8276 47.5517H35.7586M31.8966 47.5517H29.9655M31.8966 47.5517V49.4138M37.6897 47.5517H35.7586M37.6897 47.5517H39.6207M37.6897 47.5517V49.4138H39.6207M35.7586 47.5517V49.4138H33.8276M39.6207 47.5517H41.5517M39.6207 47.5517V49.4138M41.5517 47.5517H43.4828M41.5517 47.5517V49.4138M43.4828 45.6897V47.5517M43.4828 45.6897H45.4138M43.4828 47.5517H45.4138M45.4138 45.6897V47.5517M45.4138 47.5517H47.3448M45.4138 47.5517V49.4138H47.3448M47.3448 47.5517H49.2759M47.3448 47.5517V49.4138M49.2759 47.5517V49.4138M49.2759 47.5517H51.2069M2.93103 49.4138H1M2.93103 49.4138V51.2759M1 49.4138V51.2759M6.7931 49.4138H4.86207M6.7931 49.4138H8.72414M6.7931 49.4138V51.2759M4.86207 49.4138V51.2759H6.7931M8.72414 49.4138H10.6552M8.72414 49.4138V51.2759M10.6552 49.4138V51.2759H8.72414M14.5172 49.4138H12.5862M14.5172 49.4138V51.2759M12.5862 49.4138V51.2759M20.3103 49.4138H18.3793M20.3103 49.4138H22.2414M20.3103 49.4138V51.2759M18.3793 49.4138H16.4483V51.2759H18.3793M18.3793 49.4138V51.2759M22.2414 49.4138H24.1724M22.2414 49.4138V51.2759M24.1724 49.4138V51.2759M28.0345 49.4138H29.9655M28.0345 49.4138V51.2759M29.9655 47.5517V49.4138M29.9655 49.4138H31.8966M29.9655 49.4138V51.2759M31.8966 49.4138H33.8276M39.6207 49.4138H41.5517M41.5517 49.4138H43.4828V51.2759M41.5517 49.4138V51.2759M47.3448 49.4138H49.2759M47.3448 49.4138V51.2759H49.2759M49.2759 49.4138H51.2069M49.2759 49.4138V51.2759M51.2069 47.5517V49.4138M51.2069 47.5517H53.1379M51.2069 49.4138H53.1379M51.2069 49.4138V51.2759M53.1379 47.5517V49.4138M53.1379 47.5517H55.069V49.4138M53.1379 49.4138H55.069M53.1379 49.4138V51.2759M55.069 49.4138V51.2759M55.069 49.4138H57V51.2759H55.069M2.93103 51.2759H1M2.93103 51.2759V53.1379M1 51.2759V53.1379M6.7931 51.2759H8.72414M14.5172 51.2759H12.5862M14.5172 51.2759V53.1379M12.5862 51.2759V53.1379M18.3793 51.2759H20.3103M20.3103 51.2759H22.2414M22.2414 51.2759H24.1724M24.1724 51.2759H26.1034V53.1379M24.1724 51.2759V53.1379M29.9655 51.2759H28.0345M29.9655 51.2759V53.1379M28.0345 51.2759V53.1379M43.4828 51.2759H41.5517M43.4828 51.2759V53.1379M43.4828 51.2759H45.4138V53.1379M41.5517 51.2759H39.6207V53.1379M41.5517 51.2759V53.1379M49.2759 51.2759H51.2069M49.2759 51.2759V53.1379M53.1379 51.2759H51.2069M53.1379 51.2759H55.069M51.2069 51.2759V53.1379M2.93103 53.1379H1M2.93103 53.1379V55M2.93103 53.1379H4.86207M1 53.1379V55H2.93103M14.5172 53.1379H12.5862M14.5172 53.1379V55H12.5862M12.5862 53.1379H10.6552M12.5862 53.1379V55M26.1034 53.1379H24.1724M26.1034 53.1379V55H24.1724M24.1724 53.1379H22.2414M24.1724 53.1379V55M29.9655 53.1379H28.0345M29.9655 53.1379V55M29.9655 53.1379H31.8966M28.0345 53.1379V55H29.9655M31.8966 53.1379H33.8276V51.2759H31.8966V53.1379ZM31.8966 53.1379V55H29.9655M41.5517 53.1379H39.6207M41.5517 53.1379H43.4828M41.5517 53.1379V55H39.6207V53.1379M43.4828 53.1379H45.4138M45.4138 53.1379H47.3448M45.4138 53.1379V55H47.3448M51.2069 53.1379H49.2759M51.2069 53.1379V55H49.2759M49.2759 53.1379H47.3448M49.2759 53.1379V55M2.93103 55H4.86207M4.86207 53.1379V55M4.86207 53.1379H6.7931M4.86207 55H6.7931M6.7931 53.1379V55M6.7931 53.1379H8.72414M6.7931 55H8.72414M8.72414 53.1379V55M8.72414 53.1379H10.6552M8.72414 55H10.6552M10.6552 53.1379V55M10.6552 55H12.5862M22.2414 53.1379H20.3103V55H22.2414M22.2414 53.1379V55M22.2414 55H24.1724M47.3448 53.1379V55M47.3448 55H49.2759M31.8966 36.3793H33.8276V38.2414H31.8966V36.3793ZM43.4828 41.9655H45.4138V43.8276H43.4828V41.9655ZM35.7586 51.2759H37.6897V53.1379H35.7586V51.2759ZM55.069 53.1379H57V55H55.069V53.1379Z" stroke="black" stroke-width="0.5"/>
</svg>
